<svg width="816" height="458" viewBox="0 0 816 458" fill="none" xmlns="http://www.w3.org/2000/svg">
<path d="M443.815 443.008C474.25 426.907 465.738 414.771 465.738 414.771C465.738 414.771 516.902 393.191 520.408 371.977C523.911 350.763 491.738 355.486 491.738 355.486C491.738 355.486 554.273 307.56 544.412 294.121C526.049 269.093 455.108 317.725 455.108 317.725C455.108 317.725 478.326 292.498 460.817 284.278C434.41 271.88 399.781 338.602 399.781 338.602C399.781 338.602 400.962 322.764 381.069 322.67C359.639 322.566 308.293 413.949 288.996 451.839H404.145C421.196 450.052 435.756 447.273 443.814 443.008H443.815Z" fill="#50BFA5"/>
<path d="M460.911 313.862C460.911 313.862 478.072 280.68 460.563 272.461C434.156 260.065 399.781 338.602 399.781 338.602C399.781 338.602 399.222 311.474 379.328 311.377C357.494 311.273 329.196 365.132 310.096 406.966L325.321 446.816L544.413 294.121C526.05 269.093 460.912 313.862 460.912 313.862H460.911Z" fill="#3C8F7C"/>
<path d="M259.309 441.578C259.309 441.578 137.983 368.88 118.903 334.586C99.8237 300.288 131.938 301.064 131.938 301.064C131.938 301.064 80.0113 241.571 89.8419 219.12C99.6725 196.669 127.486 221.17 127.486 221.17C127.486 221.17 97.5021 136.519 115.273 129.802C148.373 117.291 185.952 207.844 185.952 207.844C185.952 207.844 179.439 169.311 201.279 172.335C234.215 176.895 225.853 262.171 225.853 262.171C225.853 262.171 232.272 229.735 251.343 242.006C285.562 264.019 259.309 441.579 259.309 441.579V441.578Z" fill="#3C8F7C"/>
<path d="M259.626 229.386C244.76 219.47 227.181 243.459 227.181 243.459C227.181 243.459 234.216 176.895 201.279 172.334C179.439 169.31 185.952 207.843 185.952 207.843C185.952 207.843 148.374 117.291 115.273 129.802L259.569 440.203C262.459 419.589 289.076 249.035 259.627 229.386H259.626Z" fill="#50BFA5"/>
<path d="M264.885 451.064C264.885 451.064 140.882 461.141 109.505 447.728C78.1291 434.315 103.436 422.723 103.436 422.723C103.436 422.723 36.0632 409.481 30.8655 388.814C25.6672 368.148 57.8309 370.178 57.8309 370.178C57.8309 370.178 -7.85495 327.96 0.78293 313.882C16.8721 287.657 90.9207 329.886 90.9207 329.886C90.9207 329.886 65.9247 306.867 82.5464 297.318C107.614 282.911 147.275 345.976 147.275 345.976C147.275 345.976 144.812 330.434 164.453 328.71C199.694 325.619 264.886 451.064 264.886 451.064H264.885Z" fill="#3C8F7C"/>
<path d="M165.247 317.417C145.606 319.138 147.274 345.977 147.274 345.977C147.274 345.977 106.896 271.224 81.8289 285.628C65.2072 295.177 84.8732 326.548 84.8732 326.548C84.8732 326.548 16.8717 287.657 0.783203 313.882L265.252 450.392C256.26 434.685 198.166 314.528 165.248 317.417H165.247Z" fill="#50BFA5"/>
<path d="M182.129 381.563C182.19 374.124 184.266 123.668 184.951 40.9565C185.061 27.6596 196.026 16.8689 209.44 16.8567L372.016 16.7717C385.431 16.7602 396.216 27.5302 396.106 40.8277L393.284 381.435C393.175 394.732 382.21 405.521 368.794 405.536L206.218 405.62C192.803 405.631 182.018 394.862 182.128 381.562L182.129 381.563ZM206.739 451.839L367.51 451.755C390.768 451.735 409.776 433.026 409.969 409.971L413.02 41.7083C413.21 18.6531 394.513 -0.0206302 371.252 1.71057e-05L210.483 0.0832061C187.225 0.104461 168.215 18.8122 168.024 41.868C167.899 56.926 165.043 401.664 164.972 410.129C164.781 433.185 183.481 451.859 206.74 451.839H206.739Z" fill="#07345A"/>
<path d="M341.859 132.95C341.859 132.95 313.497 128.66 288.847 127.756C264.245 127.756 235.833 132.95 235.833 132.95C235.833 156.376 214.005 156.784 214.005 156.784C214.005 156.784 217.816 216.366 228.904 246.31C239.991 276.254 288.846 293.974 288.846 293.974C288.846 293.974 337.701 276.254 348.787 246.31C359.875 216.366 363.686 156.784 363.686 156.784C363.686 156.784 341.858 156.376 341.858 132.95H341.859Z" fill="#07345A"/>
<path fill-rule="evenodd" clip-rule="evenodd" d="M288.847 280.513C271.305 272.882 248.18 258.994 242.078 242.516C234.259 221.398 230.174 183.549 228.61 165.791C238.352 161.675 245.624 153.931 248.409 143.365C258.341 141.926 274.259 140.003 288.562 139.979C303.153 140.529 319.233 142.326 329.349 143.612C331.981 153.317 338.688 161.401 349.082 165.791C347.516 183.555 343.425 221.423 335.615 242.517C329.517 258.979 306.42 272.867 288.848 280.513L288.847 280.513Z" fill="url(#paint0_linear_1627_26029)"/>
<path d="M309.187 189.995V181.465L303.977 183.196V188.607C303.919 188.606 303.862 188.603 303.807 188.603H273.886C273.828 188.603 273.771 188.606 273.716 188.607V183.629C273.716 175.285 280.503 168.497 288.846 168.497C290.559 168.497 292.205 168.787 293.745 169.315L295.605 164.446C293.488 163.698 291.213 163.287 288.846 163.287C277.631 163.287 268.506 172.412 268.506 183.628V189.995C265.101 191.888 262.798 195.52 262.798 199.69V223.32C262.798 229.444 267.762 234.409 273.886 234.409H303.807C309.931 234.409 314.895 229.444 314.895 223.32V199.69C314.895 195.519 312.589 191.888 309.187 189.995Z" fill="#07345A"/>
<path d="M294.146 206.094C294.146 203.167 291.772 200.794 288.846 200.794C285.92 200.794 283.548 203.167 283.548 206.094C283.548 208.39 285.012 210.34 287.056 211.076L284.38 222.217H293.309L290.637 211.076C292.681 210.34 294.145 208.39 294.145 206.094H294.146Z" fill="#41B4D1"/>
<path d="M700.662 135.506C696.955 131.8 683.894 124.809 683.894 124.809L680.188 125.638L686.702 131.852L698.244 148.25C698.244 148.25 704.369 139.211 700.662 135.506Z" fill="#184655"/>
<path d="M643.418 89.8218C653.094 103.286 665.572 114.662 680.189 123.351C675.794 129.396 671.405 135.441 667.01 141.486C650.113 131.44 635.689 118.286 624.494 102.718C630.804 98.419 637.108 94.1201 643.419 89.8218H643.418Z" fill="#3C8F7C"/>
<path d="M676.73 126.171C673.959 129.925 671.188 133.679 668.417 137.434C666.886 136.508 664.834 136.806 663.805 138.138C649.977 129.322 637.945 118.349 628.157 105.634C629.539 104.625 629.8 102.692 628.771 101.284C632.683 98.5724 636.6 95.8609 640.518 93.1494C641.466 94.4441 643.388 94.6549 644.777 93.6474C653.374 104.815 663.937 114.45 676.08 122.192C675.044 123.522 675.323 125.319 676.731 126.171L676.73 126.171Z" fill="#96D9C9"/>
<path d="M645.159 110.377C648.457 107.58 653.348 107.679 656.299 110.405C659.237 113.138 659.404 117.738 656.472 120.876C653.553 124.009 648.315 124.237 645.005 121.164C641.695 118.095 641.869 113.169 645.16 110.377H645.159Z" fill="#50BFA5"/>
<path d="M655.605 111.612C655.282 111.943 654.948 112.274 654.625 112.605C655.059 113.024 655.431 113.498 655.692 113.937C655.908 114.303 655.778 114.776 655.394 115.021C655.375 115.03 655.363 115.039 655.344 115.05C654.923 115.318 654.359 115.199 654.123 114.787C653.881 114.368 653.559 113.942 653.137 113.572C652.523 113.034 651.879 112.888 651.458 113.302C651.061 113.695 651.154 114.254 651.699 115.223C652.493 116.622 652.809 117.837 651.823 118.869C650.931 119.805 649.511 119.946 648.086 119.109C647.757 119.44 647.428 119.772 647.1 120.104C646.728 119.779 646.356 119.451 645.99 119.122C646.294 118.817 646.598 118.512 646.908 118.207C646.518 117.826 646.238 117.475 646.027 117.154C645.773 116.761 645.904 116.255 646.319 116.02V116.02C646.74 115.777 647.298 115.913 647.546 116.32C647.732 116.626 647.993 116.972 648.389 117.32C649.114 117.961 649.641 117.87 649.926 117.577C650.267 117.23 650.087 116.673 649.499 115.51C648.631 113.91 648.718 112.868 649.672 111.951C650.62 111.043 652.083 110.883 653.509 111.759C653.863 111.406 654.216 111.054 654.575 110.702C654.917 111.007 655.257 111.31 655.604 111.611L655.605 111.612Z" fill="#3C8F7C"/>
<path d="M658.512 122.01C661.575 124.45 664.76 126.765 668.064 128.946C667.612 129.513 667.159 130.082 666.713 130.649C663.366 128.438 660.136 126.091 657.024 123.617C657.521 123.081 658.016 122.545 658.512 122.01Z" fill="#50BFA5"/>
<path d="M636.556 99.7555C638.924 102.826 641.435 105.789 644.075 108.636C643.511 109.109 642.947 109.582 642.389 110.055C639.705 107.168 637.164 104.164 634.759 101.05C635.36 100.618 635.955 100.187 636.556 99.7549V99.7555Z" fill="#50BFA5"/>
<path d="M617.483 99.3032C631.648 107.923 647.578 113.53 664.426 115.825C662.74 123.105 661.054 130.385 659.374 137.664C639.892 135.01 621.476 128.529 605.099 118.562C609.227 112.142 613.355 105.723 617.483 99.3032Z" fill="#3C8F7C"/>
<path d="M662.343 119.77C661.252 124.309 660.167 128.848 659.082 133.387C657.316 133.13 655.536 134.205 655.109 135.834C638.943 133.111 623.583 127.705 609.605 119.818C610.486 118.349 609.971 116.467 608.471 115.574C611.018 111.549 613.566 107.524 616.114 103.5C617.49 104.322 619.343 103.766 620.23 102.298C632.497 109.224 645.991 113.971 660.186 116.362C659.752 117.99 660.713 119.535 662.343 119.771L662.343 119.77Z" fill="#96D9C9"/>
<path d="M627.109 117.55C629.056 113.688 633.599 111.868 637.374 113.228C641.149 114.598 643.095 118.767 641.626 122.8C640.157 126.826 635.428 129.078 631.182 127.54C626.936 126.006 625.169 121.404 627.109 117.55Z" fill="#50BFA5"/>
<path d="M637.214 114.609C637.04 115.042 636.866 115.475 636.693 115.908C637.257 116.123 637.784 116.415 638.193 116.717C638.534 116.97 638.603 117.456 638.342 117.83C638.336 117.844 638.324 117.86 638.317 117.875C638.032 118.287 637.461 118.399 637.084 118.112C636.699 117.819 636.235 117.552 635.702 117.377C634.933 117.12 634.282 117.238 634.053 117.783C633.842 118.3 634.14 118.78 635.026 119.458C636.303 120.435 637.065 121.432 636.563 122.767C636.104 123.976 634.858 124.66 633.209 124.446C633.042 124.881 632.869 125.314 632.695 125.747C632.224 125.594 631.752 125.437 631.288 125.277C631.449 124.877 631.61 124.477 631.771 124.077C631.269 123.879 630.873 123.665 630.556 123.45C630.166 123.187 630.092 122.669 630.376 122.292C630.674 121.903 631.238 121.812 631.629 122.09C631.92 122.299 632.298 122.514 632.794 122.682C633.712 122.989 634.164 122.701 634.313 122.317C634.492 121.866 634.108 121.421 633.104 120.584C631.684 119.446 631.356 118.455 631.882 117.237C632.397 116.03 633.686 115.312 635.335 115.564C635.527 115.101 635.712 114.637 635.905 114.174C636.339 114.321 636.773 114.466 637.213 114.608L637.214 114.609Z" fill="#3C8F7C"/>
<path d="M643.945 123.049C647.72 124.099 651.557 124.987 655.443 125.708C655.251 126.406 655.059 127.105 654.867 127.804C650.918 127.073 647.032 126.173 643.201 125.108C643.449 124.422 643.697 123.736 643.945 123.049Z" fill="#50BFA5"/>
<path d="M615.041 111.128C618.42 113.031 621.891 114.779 625.43 116.369C625.095 117.024 624.766 117.68 624.432 118.335C620.843 116.722 617.322 114.949 613.9 113.02C614.279 112.39 614.656 111.759 615.041 111.128H615.041Z" fill="#50BFA5"/>
<path d="M444.322 190.288C460.759 192.469 477.593 191.182 493.94 186.493C495.33 193.835 496.722 201.176 498.115 208.517C479.216 213.939 459.751 215.428 440.746 212.906C441.938 205.367 443.131 197.827 444.321 190.289L444.322 190.288Z" fill="#3C8F7C"/>
<path d="M493.623 190.942C494.456 195.534 495.29 200.126 496.125 204.717C494.404 205.196 493.214 206.894 493.476 208.559C477.581 212.583 461.343 213.824 445.376 212.238C445.592 210.537 444.361 209.025 442.629 208.81C443.338 204.1 444.048 199.39 444.757 194.681C446.348 194.878 447.821 193.623 448.037 191.923C462.061 193.316 476.319 192.226 490.276 188.692C490.538 190.355 492.04 191.382 493.623 190.942Z" fill="#96D9C9"/>
<path d="M460.485 203.108C460.709 198.788 464.134 195.293 468.139 195.016C472.144 194.75 475.609 197.779 475.886 202.064C476.163 206.341 472.741 210.308 468.234 210.611C463.731 210.918 460.263 207.418 460.485 203.108Z" fill="#50BFA5"/>
<path d="M468.543 196.346C468.561 196.813 468.575 197.278 468.592 197.744C469.198 197.713 469.795 197.768 470.293 197.88C470.709 197.974 470.965 198.391 470.879 198.838C470.876 198.855 470.873 198.873 470.871 198.891C470.776 199.383 470.3 199.717 469.839 199.605C469.369 199.492 468.839 199.435 468.282 199.488C467.469 199.566 466.921 199.936 466.933 200.525C466.947 201.084 467.417 201.402 468.498 201.667C470.06 202.046 471.162 202.65 471.237 204.076C471.306 205.367 470.439 206.495 468.847 206.963C468.864 207.429 468.881 207.895 468.902 208.361C468.408 208.41 467.916 208.455 467.423 208.498C467.412 208.067 467.397 207.635 467.386 207.203C466.841 207.227 466.391 207.191 466.016 207.122C465.557 207.037 465.278 206.592 465.391 206.133C465.503 205.658 465.985 205.347 466.449 205.444C466.8 205.518 467.233 205.564 467.755 205.517C468.718 205.429 469.014 204.983 468.997 204.572C468.98 204.085 468.453 203.832 467.196 203.47C465.44 203 464.74 202.226 464.725 200.901C464.716 199.587 465.601 198.413 467.216 197.977C467.201 197.476 467.19 196.975 467.176 196.475C467.634 196.434 468.089 196.392 468.545 196.347L468.543 196.346Z" fill="#3C8F7C"/>
<path d="M478.106 201.358C481.985 200.797 485.853 200.064 489.703 199.157C489.806 199.874 489.913 200.591 490.017 201.308C486.116 202.229 482.192 202.973 478.259 203.541C478.207 202.814 478.155 202.086 478.106 201.359V201.358Z" fill="#50BFA5"/>
<path d="M446.851 202.095C450.711 202.474 454.589 202.676 458.472 202.704C458.432 203.439 458.391 204.172 458.348 204.906C454.413 204.878 450.481 204.672 446.565 204.288C446.66 203.556 446.756 202.826 446.851 202.095Z" fill="#50BFA5"/>
<path d="M510.507 92.2803C526.946 94.4623 543.781 93.1742 560.125 88.4849C561.518 95.8262 562.907 103.168 564.3 110.51C545.401 115.931 525.937 117.42 506.932 114.898C508.123 107.36 509.316 99.8202 510.507 92.2809V92.2803Z" fill="#3C8F7C"/>
<path d="M559.808 92.9354C560.641 97.527 561.478 102.119 562.31 106.71C560.589 107.189 559.399 108.887 559.661 110.551C543.766 114.574 527.532 115.816 511.561 114.231C511.778 112.53 510.547 111.016 508.813 110.802C509.523 106.092 510.233 101.382 510.941 96.6719C512.535 96.8693 514.006 95.6147 514.222 93.9149C528.246 95.3074 542.503 94.2167 556.46 90.6836C556.723 92.3469 558.224 93.3744 559.808 92.9342L559.808 92.9354Z" fill="#96D9C9"/>
<path d="M526.672 105.099C526.894 100.781 530.32 97.2843 534.325 97.008C538.329 96.7414 541.795 99.7711 542.072 104.057C542.349 108.333 538.926 112.3 534.419 112.603C529.916 112.911 526.448 109.41 526.672 105.1V105.099Z" fill="#50BFA5"/>
<path d="M534.731 98.3389C534.746 98.8053 534.763 99.271 534.777 99.7368C535.383 99.7058 535.982 99.7611 536.478 99.8729C536.894 99.9658 537.15 100.383 537.067 100.829C537.064 100.848 537.061 100.866 537.055 100.884C536.96 101.375 536.485 101.707 536.023 101.597C535.553 101.484 535.022 101.426 534.467 101.48C533.654 101.558 533.106 101.928 533.121 102.517C533.132 103.076 533.601 103.393 534.683 103.659C536.249 104.038 537.347 104.642 537.422 106.068C537.491 107.359 536.623 108.487 535.035 108.955C535.052 109.421 535.069 109.887 535.087 110.353C534.593 110.402 534.101 110.447 533.607 110.49C533.596 110.059 533.581 109.626 533.57 109.194C533.025 109.218 532.578 109.182 532.2 109.113C531.741 109.029 531.465 108.584 531.575 108.125C531.687 107.649 532.169 107.338 532.635 107.436C532.984 107.51 533.416 107.556 533.938 107.508C534.904 107.42 535.199 106.974 535.181 106.563C535.163 106.077 534.636 105.824 533.382 105.462C531.623 104.992 530.923 104.219 530.911 102.893C530.899 101.579 531.785 100.405 533.399 99.9688C533.384 99.4678 533.373 98.9668 533.361 98.4664C533.816 98.4269 534.272 98.3832 534.731 98.3389Z" fill="#3C8F7C"/>
<path d="M544.292 103.351C548.17 102.79 552.039 102.057 555.888 101.149C555.995 101.866 556.099 102.583 556.205 103.301C552.301 104.22 548.378 104.966 544.444 105.533C544.393 104.806 544.344 104.078 544.292 103.351Z" fill="#50BFA5"/>
<path d="M513.038 104.087C516.896 104.466 520.774 104.669 524.657 104.697C524.617 105.431 524.576 106.165 524.536 106.899C520.597 106.871 516.665 106.665 512.75 106.28C512.848 105.549 512.943 104.819 513.038 104.087Z" fill="#50BFA5"/>
<path d="M663.761 115.845C643.771 115.132 600.715 120.483 572.873 155.256C545.038 190.03 595.88 250.667 637.027 236.621C667.356 226.265 687.291 137.814 687.291 137.814L663.761 115.845H663.761Z" fill="#F7CC7F"/>
<path d="M663.762 135.274L665.64 133.695L673.798 133.136L692.858 137.875L670.426 141.562L663.762 135.274Z" fill="#F7A491"/>
<path d="M789.737 419.482C791.163 417.607 789.086 417.772 784.481 417.532C780.488 417.325 762.469 416.939 761.627 416.094C759.135 413.606 755.353 402.405 755.353 402.405L738.636 398.167C738.636 398.167 746.694 440.987 747.01 440.848C770.038 430.619 786.601 423.605 789.737 419.482Z" fill="#133945"/>
<path d="M625.014 452.28C627.333 451.876 627.804 451.903 624.556 448.786C621.742 446.082 605.898 439.724 606.499 438.744C608.21 435.968 614.756 430.389 614.756 430.389L605.73 415.016C605.73 415.016 570.813 452.28 579.298 452.28C581.088 452.28 619.919 453.171 625.014 452.28H625.014Z" fill="#133945"/>
<path d="M677.486 238.722L638.788 267.524L652.029 286.936L661.984 361.98L592.727 424.666C592.727 424.666 603.518 432.73 619.189 438.181C619.189 438.181 689.202 374.923 691.192 371.757C694.087 367.159 687.262 257.519 687.262 257.519L677.487 238.721L677.486 238.722Z" fill="#133945"/>
<path d="M638.496 282.53C645.935 299.826 711.708 333.118 711.708 333.118L736.819 415.402L760.28 401.217L736.906 316.064L682.321 266.414L646.003 246.347C646.003 246.347 634.195 272.526 638.497 282.53H638.496Z" fill="#244566"/>
<path d="M662.857 114.78L668.052 134.926L687.292 137.813C687.292 137.813 680.691 118.258 679.718 111.81C678.751 105.362 662.857 114.78 662.857 114.78Z" fill="#F7A491"/>
<path d="M663.005 115.343C664.351 116.175 674.764 122.452 682.32 122.124C681.112 118.01 680.064 114.091 679.717 111.811C678.793 105.621 664.109 114.051 662.931 114.736L662.9 114.95L663.006 115.343H663.005Z" fill="#B75742"/>
<path d="M704.301 229.098C704.556 222.368 725.829 159.455 692.859 137.876C692.822 137.822 671.411 141.048 665.641 133.695C664.141 134.02 657.025 134.575 653.429 136.534C643.239 142.08 645.569 160.431 645.997 167.505C648.03 200.87 648.185 215.893 646.803 227.951C645.421 240.007 628.133 265.679 628.133 265.679C628.133 265.679 673.711 274.753 691.582 268.614C691.582 268.614 704.028 236.294 704.301 229.098H704.301Z" fill="#184655"/>
<path d="M668.628 104.72C668.876 107.519 667.741 109.907 666.099 110.051C664.456 110.196 662.918 108.043 662.671 105.244C662.423 102.444 663.557 100.057 665.2 99.9126C666.843 99.7681 668.38 101.92 668.627 104.72H668.628Z" fill="#F7A491"/>
<path d="M677.888 74.9769C666.842 68.3637 653.472 74.1025 651.061 80.7764C648.513 87.8178 651.172 105.639 658.152 112.622C659.174 113.644 661.926 115.375 663.011 115.375L681.514 119.317C681.514 119.317 681.514 119.317 681.52 119.316C683.578 118.722 685.295 117.672 686.411 116.13C691.197 109.524 688.934 81.5908 677.888 74.9769Z" fill="#184655"/>
<path d="M680.244 93.5257C680.244 95.1173 677.846 96.4078 674.889 96.4078C671.938 96.4078 669.546 95.1173 669.546 93.5257C669.546 91.934 671.939 90.6436 674.889 90.6436C677.846 90.6436 680.244 91.9346 680.244 93.5257Z" fill="#F7A491"/>
<path d="M681.576 119.562C681.576 119.562 696.007 121.836 709.594 144.507L719.573 194.298L698.951 210.817L701.424 145.785C701.424 145.785 699.763 145.942 686.808 136.372C684.279 134.503 681.576 119.562 681.576 119.562Z" fill="#F7CC7F"/>
<path d="M700.966 156.288C698.227 161.242 693.546 170.134 690.255 174.43C691.488 179.201 690.869 184.001 692.114 188.758C696.249 181.554 707.976 168.764 708.405 167.638C708.46 167.509 708.621 167.363 708.869 167.2C706.725 163.23 704.165 159.521 700.966 156.289V156.288Z" fill="#F7A491"/>
<path d="M714.212 148.708C711.224 143.188 710.499 145.883 710.499 145.883C708.113 149.774 702.906 149.772 702.906 149.772L701.858 146.299C701.858 146.299 699.62 145.399 699.137 145.811C696.621 147.929 696.812 160.114 696.812 160.114C696.49 160.454 696.267 161.46 695.263 163.27C698.461 166.502 701.529 171.592 703.68 175.562C705.589 174.305 712.712 168.875 714.242 165.229C715.47 162.331 718.396 156.434 714.212 148.708L714.212 148.708Z" fill="#133945"/>
<path d="M634.145 175.562C634.145 198.776 642.221 223.112 648.649 225.142C661.53 229.211 701.394 178.908 701.394 178.908L693.416 166.615L662.857 191.489C662.857 191.489 667.121 139.695 655.282 135.96C650.243 134.371 634.145 142.402 634.145 175.562Z" fill="#355389"/>
<path d="M704.028 130.982C702.764 130.982 693.416 136.285 693.416 141.561C693.416 146.837 701.394 149.629 701.394 149.629C701.394 149.629 708.609 152.04 712.861 143.757C716.877 135.93 704.028 130.983 704.028 130.983V130.982Z" fill="#184655"/>
<path d="M696.541 54.208L702.088 53.8193L702.069 48.6338L707.518 48.0095L708.107 43.0524L712.111 41.918L711.535 39.8921L706.186 41.4091L705.621 46.1069L699.956 46.7567L699.974 51.856L694.947 52.2088L696.541 54.208Z" fill="#F48C7F"/>
<path d="M675.13 56.0172L679.376 52.4239L676.296 48.2538L680.324 44.5294L677.87 40.1807L680.43 36.9008L678.769 35.6055L675.347 39.9918L677.671 44.1134L673.481 47.9872L676.513 52.0894L672.663 55.3449L675.13 56.0172Z" fill="#F48C7F"/>
<path d="M629.608 79.3973L625.238 71.1694L616.925 73.5754L612.586 63.8414L604.076 69.8121L598.757 59.1314L590.482 63.4643L583.954 54.431L586.915 50.918L591.796 57.6715L600.53 53.0999L605.637 63.3665L614.291 57.2962L619.083 68.037L627.202 65.6875L631.244 73.3143L636.438 70.3793L637.691 74.8276L629.608 79.3973Z" fill="#50BFA5"/>
<path d="M31.21 454.846C31.21 456.585 32.6073 457.992 34.3301 457.992H812.164C813.886 457.992 815.287 456.585 815.287 454.846C815.287 453.108 813.886 451.701 812.164 451.701H34.3301C32.6073 451.701 31.21 453.108 31.21 454.846Z" fill="#96D9C9"/>
<defs>
<linearGradient id="paint0_linear_1627_26029" x1="228.61" y1="210.246" x2="349.08" y2="210.246" gradientUnits="userSpaceOnUse">
<stop stop-color="#1F90F2"/>
<stop offset="1" stop-color="#A3D6FF"/>
</linearGradient>
</defs>
</svg>
