<svg width="583" height="543" viewBox="0 0 583 543" fill="none" xmlns="http://www.w3.org/2000/svg">
<rect width="582.671" height="543" rx="30" fill="#A7C6FF"/>
<path fill-rule="evenodd" clip-rule="evenodd" d="M227.5 481.875C257.6 481.875 282 457.25 282 426.875C282 396.499 257.6 371.875 227.5 371.875C197.4 371.875 173 396.499 173 426.875C173 457.25 197.4 481.875 227.5 481.875Z" fill="#3F82D3"/>
<path d="M227.497 391.673V441.173L249.297 427.423L227.497 391.673Z" fill="#E6E6E6"/>
<path d="M227.498 391.673L205.698 427.423L227.498 441.173V391.673Z" fill="white"/>
<path d="M227.497 445.298L227.497 463.173L249.297 432.923L227.497 445.298Z" fill="#E6E6E6"/>
<path d="M227.498 463.173V445.298L205.698 432.923L227.498 463.173Z" fill="white"/>
<path opacity="0.1" d="M227.497 441.174L249.297 427.424L227.497 419.174V441.174Z" fill="#141414"/>
<path opacity="0.1" d="M205.698 427.424L227.498 441.174V419.174L205.698 427.424Z" fill="#393939"/>
<g clip-path="url(#clip0_1625_25391)">
<path d="M488 477.875C518.928 477.875 544 452.802 544 421.875C544 390.947 518.928 365.875 488 365.875C457.072 365.875 432 390.947 432 421.875C432 452.802 457.072 477.875 488 477.875Z" fill="#335DD2"/>
<path d="M525.033 400.408V443.341L487.852 464.807L450.671 443.341V400.408L487.852 378.941L525.033 400.408ZM464.19 408.213V435.535L487.852 449.195L511.513 435.535V408.213L487.852 394.553L464.19 408.213Z" fill="white"/>
</g>
<g clip-path="url(#clip1_1625_25391)">
<path d="M358.5 495.875C389.152 495.875 414 471.026 414 440.375C414 409.723 389.152 384.875 358.5 384.875C327.848 384.875 303 409.723 303 440.375C303 471.026 327.848 495.875 358.5 495.875Z" fill="#EF0027"/>
<path d="M379.078 419.26L329.017 410.047L355.362 476.342L392.072 431.616L379.078 419.26ZM378.273 423.319L385.932 430.6L364.988 434.391L378.273 423.319ZM360.437 433.631L338.361 415.323L374.443 421.963L360.437 433.631ZM358.865 436.871L355.265 466.633L335.857 417.783L358.865 436.871ZM362.195 438.449L385.391 434.252L358.785 466.661L362.195 438.449Z" fill="white"/>
</g>
<g clip-path="url(#clip2_1625_25391)">
<path d="M487.5 348.875C510.972 348.875 530 329.847 530 306.375C530 282.902 510.972 263.875 487.5 263.875C464.028 263.875 445 282.902 445 306.375C445 329.847 464.028 348.875 487.5 348.875Z" fill="#4BA2FF"/>
<path d="M500.496 303.79C502.555 306.486 503.669 309.807 503.661 313.224C503.665 316.691 502.518 320.059 500.408 322.778L500.231 323L500.19 322.702C500.148 322.457 500.099 322.214 500.044 321.972C499.024 317.316 495.724 313.314 490.265 310.07C486.587 307.897 484.472 305.277 483.915 302.303C483.617 300.448 483.769 298.547 484.357 296.765C484.77 295.376 485.415 294.066 486.264 292.897L488.396 290.19C488.482 290.081 488.591 289.994 488.715 289.934C488.839 289.873 488.975 289.842 489.112 289.842C489.25 289.842 489.385 289.873 489.509 289.934C489.633 289.994 489.743 290.081 489.829 290.19L500.496 303.79ZM503.851 301.083L489.636 282.943C489.573 282.863 489.494 282.798 489.403 282.754C489.312 282.709 489.213 282.686 489.112 282.686C489.012 282.686 488.912 282.709 488.822 282.754C488.731 282.798 488.651 282.863 488.589 282.943L474.368 301.097L474.324 301.142C471.602 304.671 470.126 309.032 470.136 313.522C470.139 324.428 478.636 333.283 489.112 333.283C499.589 333.283 508.083 324.428 508.083 313.522C508.093 309.032 506.617 304.671 503.896 301.142L503.851 301.083ZM477.77 303.731L479.041 302.109L479.085 302.407L479.187 303.121C480.02 307.63 482.953 311.38 487.872 314.281C492.145 316.825 494.626 319.742 495.343 322.941C495.636 324.279 495.693 325.589 495.564 326.736V326.809L495.503 326.837C493.518 327.849 491.332 328.375 489.112 328.372C481.084 328.372 474.561 321.586 474.561 313.224C474.561 309.64 475.755 306.337 477.77 303.731Z" fill="white"/>
</g>
<g clip-path="url(#clip3_1625_25391)">
<path d="M352.773 229.054C352.773 223.033 355.755 215.876 357.244 213.048C354.969 205.898 351.274 190.936 354.685 188.293C358.099 185.65 366.334 194.435 370.025 199.156C371.536 198.359 375.809 196.768 380.851 196.768C385.893 196.768 390.629 198.359 392.373 199.156C402.3 188.046 406.454 187.289 407.287 188.293C410.797 192.727 407.142 206.641 404.87 213.048C406.337 215.392 409.257 221.879 409.257 229.058C409.257 238.024 396.37 250.882 380.797 250.882C365.22 250.882 352.773 236.582 352.773 229.054Z" fill="#EB9A2E"/>
<path fill-rule="evenodd" clip-rule="evenodd" d="M358.139 209.312C356.803 204.808 354.542 195.183 356.137 192.697C357.739 190.211 364.142 196.436 367.142 199.858C365.412 201.241 361.193 205.063 358.139 209.312ZM404.189 209.312C405.522 204.808 407.786 195.183 406.188 192.697C404.586 190.211 398.186 196.436 395.183 199.858C396.912 201.241 401.139 205.063 404.189 209.312Z" fill="#E58014"/>
<path d="M370.772 215.53C369.275 215.802 367.768 215.899 366.251 215.822C365.971 215.815 365.703 215.705 365.498 215.514C365.294 215.323 365.166 215.063 365.141 214.784C364.995 212.942 365.694 210.481 367.783 210.58C370.292 210.696 371.387 212.553 371.77 214.078C371.941 214.766 371.46 215.403 370.772 215.53ZM391.34 215.534C393.124 215.862 394.769 215.887 395.865 215.825C396.145 215.818 396.412 215.708 396.617 215.517C396.821 215.326 396.949 215.066 396.975 214.788C397.117 212.946 396.418 210.485 394.329 210.583C391.824 210.7 390.728 212.556 390.346 214.082C390.175 214.77 390.652 215.41 391.34 215.538" fill="#FEFFF7"/>
<path d="M379.276 250.511C357.845 247.246 352.683 234.821 352.778 229.018C363.852 228.199 367.648 232.484 368.162 234.727C368.457 231.312 371.34 224.472 380.499 224.472C389.658 224.472 392.537 231.308 392.832 234.727C394.774 232.263 397.432 230.461 400.44 229.569C403.447 228.677 406.658 228.739 409.629 229.747C404.387 247.173 387.208 250.853 379.276 250.511Z" fill="#EAEAE8"/>
<path fill-rule="evenodd" clip-rule="evenodd" d="M383.833 227.764H377.888C377.691 227.765 377.496 227.805 377.314 227.882C377.132 227.959 376.967 228.071 376.828 228.212C376.69 228.352 376.58 228.519 376.506 228.702C376.432 228.885 376.394 229.081 376.396 229.278V232.212C376.483 233.159 377.361 234.979 380.12 235.285V238.197C379.94 238.37 379.797 238.578 379.701 238.808H376.145V238.845C375.77 238.498 375.356 238.196 374.911 237.946C374.845 237.911 374.772 237.897 374.698 237.904C374.625 237.911 374.555 237.94 374.498 237.987C374.441 238.033 374.399 238.096 374.377 238.166C374.355 238.237 374.355 238.312 374.375 238.383C374.388 238.431 374.411 238.477 374.442 238.516C374.474 238.556 374.513 238.588 374.557 238.612C374.794 238.743 375.162 238.976 375.475 239.249C375.616 239.374 375.748 239.511 375.868 239.657C375.965 239.793 376.018 239.894 376.028 239.962C376.043 240.04 376.074 240.106 376.123 240.159V241.786C376.123 241.994 376.29 242.165 376.494 242.165C376.543 242.164 376.592 242.154 376.637 242.135C376.683 242.116 376.724 242.088 376.758 242.052C376.793 242.017 376.82 241.976 376.838 241.93C376.857 241.884 376.866 241.835 376.865 241.786V239.562H384.86V241.783C384.86 241.994 385.027 242.165 385.231 242.165C385.281 242.165 385.33 242.155 385.375 242.136C385.421 242.116 385.462 242.088 385.497 242.052C385.532 242.017 385.56 241.976 385.579 241.93C385.597 241.885 385.607 241.836 385.606 241.786V239.966L385.617 239.901L385.624 239.886C385.65 239.84 385.68 239.798 385.715 239.759C385.843 239.621 385.982 239.493 386.13 239.376C386.463 239.116 386.811 238.875 387.171 238.656C387.234 238.617 387.284 238.56 387.315 238.493C387.347 238.427 387.358 238.352 387.348 238.279C387.338 238.206 387.307 238.137 387.259 238.081C387.211 238.025 387.147 237.985 387.077 237.964C387.029 237.95 386.98 237.947 386.931 237.953C386.882 237.959 386.835 237.975 386.793 238C386.4 238.237 386.024 238.499 385.664 238.783L385.635 238.805H381.904C381.828 238.662 381.73 238.533 381.612 238.423V235.299C384.474 235.044 385.286 233.177 385.326 232.212V229.278C385.327 229.081 385.29 228.885 385.215 228.702C385.141 228.519 385.032 228.352 384.893 228.212C384.754 228.071 384.589 227.959 384.408 227.882C384.226 227.805 384.03 227.765 383.833 227.764ZM378.369 240.65L379.155 241.615L379.76 241.044L380.852 242.099L381.98 241.044L382.508 241.615L383.236 240.647L378.369 240.65Z" fill="#000001"/>
<path d="M364.646 218.026C363.546 217.596 363.535 218.608 363.666 219.162V220.006C363.667 220.769 363.898 221.514 364.329 222.144C364.76 222.773 365.372 223.258 366.083 223.534C369.407 224.782 375.024 226.511 374.409 224.699C373.597 222.314 366.014 218.568 364.646 218.026ZM397.172 218.026C398.264 217.596 398.279 218.608 398.148 219.162V220.006C398.147 220.769 397.916 221.514 397.485 222.144C397.053 222.773 396.442 223.258 395.73 223.534C392.407 224.782 386.79 226.511 387.405 224.699C388.217 222.314 395.799 218.568 397.172 218.026Z" fill="black"/>
<path fill-rule="evenodd" clip-rule="evenodd" d="M370.011 197.419C366.786 193.426 362.792 188.952 357.86 186.993C346.342 182.417 354.503 208.77 355.712 212.57C354.128 215.635 351.14 222.814 351.14 228.879C351.14 242.006 370.102 251.638 381.02 251.638C392.421 251.638 410.863 242.319 410.863 228.879C410.863 221.762 408.158 215.486 406.567 212.81C409.017 205.835 413.539 193.134 408.653 186.869C405.362 182.93 393.692 195.588 392.272 197.146C390.142 196.272 385.69 195.231 380.848 195.231C376.094 195.231 371.962 196.534 370.011 197.419ZM354.66 188.384C354.387 188.591 354.136 188.966 353.935 189.563C353.719 190.301 353.596 191.063 353.571 191.831C353.473 193.651 353.681 195.952 354.081 198.435C354.864 203.386 356.374 208.919 357.521 212.501L357.623 212.81L357.47 213.094C355.974 215.912 353.011 222.996 353.011 228.879C353.011 230.582 353.728 232.767 355.129 235.126C356.524 237.47 358.551 239.924 361.07 242.155C366.12 246.618 373.313 249.603 381.02 249.603C388.748 249.603 395.606 246.964 400.757 242.687C405.941 238.38 409.028 233.072 409.028 228.879C409.028 221.824 406.112 215.42 404.678 213.142L404.481 212.829L404.605 212.479C405.748 209.279 407.241 204.205 408.005 199.392C408.388 196.986 408.584 194.671 408.471 192.701C408.355 190.724 407.94 189.206 407.204 188.275C407.183 188.26 407.037 188.165 406.571 188.238C406.029 188.318 405.199 188.617 404.026 189.327C401.689 190.735 398.166 193.666 393.127 199.243L392.763 199.643L392.272 199.425C390.575 198.653 385.85 197.08 380.848 197.08C377.012 197.08 373.044 197.9 369.629 199.691C367.172 196.578 364.507 193.586 361.442 191.059C360.095 189.945 356.6 186.895 354.66 188.384Z" fill="black"/>
</g>
<g clip-path="url(#clip4_1625_25391)">
<path d="M230 341.875C254.853 341.875 275 321.727 275 296.875C275 272.022 254.853 251.875 230 251.875C205.147 251.875 185 272.022 185 296.875C185 321.727 205.147 341.875 230 341.875Z" fill="#F3BA2F"/>
<path d="M219.076 292.386L230 281.462L240.929 292.391L247.286 286.035L230 268.75L212.72 286.03L219.076 292.386ZM201.875 296.875L208.231 290.518L214.588 296.875L208.231 303.231L201.875 296.875ZM219.076 301.363L230 312.287L240.929 301.358L247.286 307.711L230 325L212.72 307.72L212.712 307.711L219.076 301.363ZM245.412 296.875L251.769 290.518L258.125 296.875L251.769 303.231L245.412 296.875ZM236.446 296.869H236.452V296.875L230 303.326L223.557 296.886L223.545 296.875L223.557 296.866L224.684 295.735L225.233 295.187L230 290.423L236.446 296.869Z" fill="white"/>
</g>
<g clip-path="url(#clip5_1625_25391)">
<path d="M160.999 226.875C183.643 226.875 201.999 208.518 201.999 185.875C201.999 163.231 183.643 144.875 160.999 144.875C138.355 144.875 119.999 163.231 119.999 185.875C119.999 208.518 138.355 226.875 160.999 226.875Z" fill="#23292F"/>
<path d="M179.117 165.375H186.522L171.109 180.639C168.415 183.295 164.783 184.784 161 184.784C157.217 184.784 153.585 183.295 150.891 180.639L135.465 165.375H142.883L154.594 176.965C156.299 178.648 158.599 179.592 160.995 179.592C163.391 179.592 165.691 178.648 167.396 176.965L179.117 165.375ZM142.793 207.817H135.375L150.891 192.46C153.585 189.804 157.217 188.316 161 188.316C164.783 188.316 168.415 189.804 171.109 192.46L186.625 207.815H179.207L167.406 196.125C165.701 194.441 163.401 193.498 161.005 193.498C158.609 193.498 156.309 194.441 154.604 196.125L142.791 207.817H142.793Z" fill="white"/>
</g>
<path d="M375.994 89.6688C375.994 93.4125 370.836 96.4632 364.481 96.4632C358.13 96.4632 352.964 93.4125 352.964 89.6688C352.964 85.9178 358.148 82.8745 364.481 82.8745C370.814 82.8745 375.994 85.9215 375.994 89.6688ZM375.994 142.08C375.994 145.828 370.836 148.875 364.481 148.875C358.13 148.875 352.964 145.828 352.964 142.08C352.964 138.337 358.148 135.286 364.481 135.286C370.814 135.286 375.994 138.337 375.994 142.08ZM347.882 106.455C351.145 100.772 351.166 94.6115 347.958 92.7525C344.736 90.8678 339.512 93.9772 336.253 99.6642C332.991 105.348 332.991 111.504 336.173 113.367C339.4 115.233 344.62 112.138 347.882 106.455ZM392.752 118.361C395.975 120.205 395.957 126.244 392.709 131.832C389.45 137.42 384.212 140.449 381.004 138.608C377.763 136.764 377.781 130.725 381.022 125.133C384.284 119.545 389.526 116.516 392.752 118.361ZM347.976 138.645C351.203 136.804 351.184 130.765 347.918 125.177C344.678 119.589 339.436 116.56 336.213 118.401C332.972 120.267 332.987 126.284 336.253 131.872C339.497 137.464 344.736 140.515 347.962 138.667L347.976 138.645ZM392.752 99.6862C396.011 105.37 396.011 111.508 392.81 113.37C389.602 115.255 384.364 112.171 381.102 106.462C377.875 100.775 377.839 94.6408 381.04 92.7745C384.266 90.8898 389.486 93.9808 392.749 99.6862" fill="#E6007A"/>
<path d="M306.579 167.33C306.69 165.364 306.958 164.069 307.494 162.88C307.707 162.413 307.911 162.029 307.938 162.029C307.908 162.294 307.839 162.552 307.735 162.797C307.342 163.949 307.277 165.526 307.55 167.353C307.888 169.674 308.082 170.012 310.547 172.519C311.703 173.698 313.044 175.178 313.535 175.816L314.418 176.973L313.535 176.149C312.452 175.132 309.96 173.162 309.409 172.88C309.039 172.69 308.984 172.695 308.757 172.917C308.549 173.125 308.503 173.439 308.475 174.915C308.429 177.218 308.114 178.698 307.356 180.178C306.939 180.973 306.875 180.807 307.249 179.9C307.527 179.23 307.554 178.929 307.554 176.704C307.55 172.223 307.013 171.145 303.887 169.304C302.945 168.755 301.975 168.253 300.982 167.801C300.493 167.606 300.019 167.375 299.562 167.112C299.655 167.024 302.708 167.912 303.933 168.384C305.76 169.082 306.061 169.175 306.283 169.092C306.431 169.032 306.505 168.601 306.579 167.334" fill="#F50DB4"/>
<path d="M267.963 160.818C266.877 160.647 266.83 160.633 267.344 160.55C268.32 160.402 270.627 160.605 272.218 160.98C275.932 161.858 279.313 164.111 282.921 168.102L283.878 169.166L285.252 168.944C291.028 168.019 296.902 168.759 301.818 171.016C303.169 171.636 305.301 172.871 305.565 173.19C305.653 173.291 305.81 173.944 305.912 174.637C306.282 177.042 306.097 178.892 305.357 180.266C304.954 181.02 304.931 181.256 305.199 181.899C305.417 182.407 306.018 182.787 306.615 182.787C307.836 182.787 309.154 180.821 309.76 178.092L310.005 177.005L310.481 177.546C313.113 180.506 315.175 184.549 315.532 187.425L315.624 188.175L315.18 187.49C314.549 186.447 313.696 185.555 312.683 184.877C310.916 183.716 309.047 183.318 304.108 183.059C299.649 182.828 297.124 182.449 294.622 181.635C290.362 180.257 288.212 178.416 283.152 171.811C280.904 168.879 279.517 167.256 278.134 165.952C274.998 162.982 271.909 161.424 267.959 160.818M270.068 175.017C267.866 172.006 266.507 167.385 266.798 163.93L266.89 162.857L267.39 162.95C268.333 163.121 269.957 163.722 270.715 164.18C272.797 165.438 273.703 167.094 274.619 171.354C274.887 172.602 275.243 174.013 275.405 174.489C275.664 175.257 276.654 177.056 277.454 178.222C278.032 179.059 277.648 179.461 276.372 179.346C274.42 179.17 271.774 177.357 270.068 175.017ZM303.904 197.448C293.618 193.332 289.992 189.752 289.992 183.721C289.992 182.833 290.025 182.102 290.062 182.102C290.099 182.102 290.496 182.398 290.945 182.759C293.031 184.424 295.367 185.131 301.832 186.07C305.639 186.625 307.78 187.069 309.755 187.721C316.036 189.789 319.916 193.993 320.846 199.719C321.114 201.384 320.957 204.501 320.522 206.143C320.175 207.438 319.125 209.783 318.843 209.871C318.769 209.898 318.69 209.602 318.672 209.2C318.566 207.049 317.474 204.959 315.643 203.391C313.557 201.61 310.754 200.19 303.904 197.448ZM296.685 199.159C296.562 198.428 296.395 197.705 296.185 196.995L295.922 196.218L296.412 196.759C297.087 197.513 297.614 198.475 298.072 199.76C298.414 200.741 298.451 201.032 298.451 202.623C298.451 204.186 298.405 204.515 298.086 205.398C297.587 206.786 296.962 207.771 295.912 208.83C294.039 210.731 291.62 211.785 288.138 212.22C287.532 212.299 285.765 212.424 284.211 212.507C280.298 212.706 277.722 213.127 275.41 213.936C275.201 214.029 274.977 214.082 274.748 214.093C274.656 214.001 276.228 213.066 277.533 212.442C279.369 211.563 281.196 211.082 285.284 210.407C287.31 210.069 289.396 209.667 289.928 209.501C294.932 207.974 297.508 204.034 296.68 199.159" fill="#F50DB4"/>
<path d="M301.398 207.488C300.034 204.565 299.719 201.743 300.469 199.112C300.547 198.834 300.677 198.603 300.751 198.603C301.007 198.695 301.249 198.824 301.468 198.987C302.101 199.408 303.364 200.12 306.726 201.942C310.926 204.218 313.322 205.985 314.95 208.001C316.374 209.759 317.257 211.77 317.678 214.222C317.923 215.609 317.78 218.948 317.424 220.345C316.295 224.753 313.668 228.212 309.931 230.233C309.578 230.436 309.212 230.615 308.835 230.77C308.78 230.77 308.979 230.266 309.279 229.651C310.537 227.033 310.681 224.485 309.728 221.649C309.145 219.915 307.957 217.801 305.556 214.222C302.767 210.059 302.087 208.949 301.398 207.488ZM262.766 223.25C266.581 220.045 271.331 217.769 275.656 217.071C277.519 216.77 280.627 216.886 282.353 217.325C285.118 218.033 287.597 219.61 288.883 221.488C290.141 223.328 290.682 224.929 291.242 228.49C291.464 229.896 291.704 231.306 291.778 231.626C292.199 233.471 293.022 234.946 294.045 235.686C295.659 236.866 298.438 236.935 301.176 235.871C301.462 235.741 301.764 235.648 302.074 235.594C302.175 235.696 300.797 236.611 299.821 237.097C298.512 237.744 297.472 237.999 296.089 237.999C293.582 237.999 291.501 236.732 289.762 234.142C289.42 233.633 288.652 232.107 288.051 230.751C286.219 226.589 285.317 225.326 283.185 223.939C281.335 222.732 278.939 222.514 277.145 223.388C274.781 224.545 274.12 227.546 275.813 229.447C276.483 230.206 277.737 230.858 278.764 230.983C279.21 231.043 279.664 231.007 280.096 230.876C280.527 230.746 280.925 230.524 281.263 230.226C281.601 229.928 281.871 229.561 282.055 229.15C282.239 228.739 282.333 228.293 282.329 227.842C282.329 226.594 281.848 225.877 280.632 225.331C278.967 224.586 277.182 225.456 277.191 227.01C277.191 227.671 277.487 228.087 278.153 228.388C278.579 228.582 278.592 228.596 278.246 228.527C276.719 228.212 276.359 226.381 277.584 225.169C279.06 223.712 282.103 224.355 283.148 226.344C283.587 227.176 283.638 228.841 283.254 229.845C282.399 232.097 279.897 233.277 277.362 232.634C275.637 232.194 274.939 231.723 272.857 229.591C269.241 225.891 267.839 225.169 262.627 224.364L261.628 224.207L262.766 223.25Z" fill="#F50DB4"/>
<path fill-rule="evenodd" clip-rule="evenodd" d="M245.8 156.965C257.872 171.534 266.187 177.546 267.112 178.823C267.876 179.868 267.589 180.811 266.28 181.551C265.554 181.963 264.06 182.379 263.311 182.379C262.464 182.379 262.173 182.056 262.173 182.056C261.683 181.593 261.41 181.672 258.889 177.222C256.746 173.89 254.577 170.573 252.382 167.274C252.197 167.098 252.201 167.103 258.533 178.369C259.551 180.719 258.737 181.579 258.737 181.912C258.737 182.592 258.552 182.953 257.705 183.887C256.299 185.45 255.67 187.203 255.217 190.829C254.708 194.899 253.274 197.771 249.311 202.692C246.989 205.569 246.61 206.096 246.027 207.257C245.287 208.719 245.084 209.537 245 211.383C244.912 213.334 245.084 214.597 245.685 216.461C246.207 218.094 246.753 219.171 248.155 221.326C249.362 223.19 250.06 224.573 250.06 225.114C250.06 225.544 250.143 225.544 252.016 225.124C256.493 224.12 260.133 222.349 262.178 220.179C263.445 218.838 263.741 218.098 263.75 216.257C263.759 215.055 263.718 214.801 263.389 214.107C262.857 212.983 261.886 212.044 259.749 210.592C256.951 208.691 255.758 207.155 255.425 205.051C255.157 203.321 255.471 202.1 257.021 198.872C258.621 195.533 259.019 194.108 259.287 190.741C259.463 188.568 259.703 187.707 260.328 187.018C260.984 186.301 261.576 186.056 263.195 185.839C265.841 185.478 267.524 184.798 268.912 183.526C270.114 182.43 270.614 181.366 270.692 179.771L270.748 178.564L270.077 177.782C267.654 174.965 244.177 154.75 244.024 154.75C243.992 154.75 244.792 155.749 245.8 156.965ZM251.424 213.593C251.691 213.127 251.771 212.576 251.648 212.053C251.526 211.529 251.209 211.072 250.763 210.772C249.894 210.199 248.543 210.467 248.543 211.216C248.543 211.447 248.673 211.609 248.959 211.757C249.44 212.002 249.473 212.28 249.098 212.849C248.71 213.422 248.742 213.926 249.181 214.269C249.894 214.824 250.897 214.518 251.424 213.593ZM272.417 186.472C271.178 186.852 269.966 188.161 269.596 189.534C269.365 190.367 269.499 191.837 269.841 192.291C270.392 193.026 270.923 193.216 272.366 193.206C275.197 193.188 277.653 191.981 277.94 190.478C278.171 189.238 277.093 187.527 275.609 186.773C274.841 186.385 273.204 186.232 272.417 186.472ZM275.724 189.044C276.159 188.429 275.969 187.763 275.229 187.31C273.814 186.454 271.677 187.162 271.677 188.489C271.677 189.15 272.792 189.872 273.814 189.872C274.494 189.872 275.424 189.469 275.724 189.039" fill="#F50DB4"/>
<path d="M137.924 274.545H100.554C95.6151 274.532 90.8674 276.435 87.3289 279.847C83.7904 283.258 81.7428 287.907 81.625 292.795C81.625 293.058 81.8354 293.287 82.1216 293.287H119.492C129.752 293.329 138.156 285.204 138.421 275.016C138.419 274.887 138.366 274.764 138.274 274.672C138.183 274.581 138.059 274.528 137.928 274.525L137.924 274.545ZM156.857 246.375H100.563C95.6226 246.362 90.8749 248.269 87.3389 251.684C83.8028 255.099 81.7604 259.751 81.6503 264.641C81.6503 264.908 81.8565 265.133 82.1258 265.133H138.438C148.697 265.175 157.101 257.058 157.371 246.866C157.369 246.737 157.316 246.614 157.224 246.522C157.133 246.431 157.009 246.378 156.878 246.375H156.857ZM91.1022 321.375C92.3488 321.373 93.5828 321.128 94.7338 320.654C95.8848 320.18 96.9302 319.486 97.8103 318.612C98.6904 317.738 99.3879 316.701 99.863 315.56C100.338 314.419 100.582 313.196 100.579 311.962C100.581 310.728 100.337 309.506 99.8618 308.365C99.3865 307.225 98.6888 306.188 97.8088 305.315C96.9288 304.441 95.8835 303.747 94.7328 303.274C93.5821 302.8 92.3484 302.555 91.1022 302.554C88.5861 302.557 86.1743 303.55 84.3971 305.313C82.6199 307.077 81.6228 309.467 81.625 311.958C81.6223 313.192 81.8653 314.415 82.3401 315.557C82.815 316.699 83.5125 317.736 84.3926 318.611C85.2728 319.485 86.3183 320.18 87.4696 320.654C88.6209 321.128 89.8553 321.373 91.1022 321.375Z" fill="#E62058"/>
<path d="M451.445 174.112V207.628C451.445 209.766 452.609 211.746 454.485 212.815L483.959 229.578C484.886 230.102 485.934 230.378 486.999 230.378C488.064 230.378 489.112 230.102 490.039 229.578L519.503 212.81C521.384 211.746 522.543 209.77 522.543 207.633V174.107C522.543 171.97 521.384 169.989 519.503 168.925L490.039 152.162C489.112 151.638 488.064 151.362 486.999 151.362C485.934 151.362 484.886 151.638 483.959 152.162L454.485 168.93C453.564 169.446 452.798 170.198 452.264 171.109C451.731 172.02 451.445 173.057 451.445 174.112Z" fill="#213147"/>
<path d="M493.425 197.373L489.221 208.725C489.107 209.04 489.107 209.384 489.221 209.699L496.456 229.231L504.816 224.476L494.779 197.373C494.728 197.234 494.635 197.115 494.514 197.031C494.393 196.947 494.25 196.902 494.102 196.902C493.955 196.902 493.811 196.947 493.69 197.031C493.569 197.115 493.477 197.234 493.425 197.373ZM501.852 178.282C501.8 178.144 501.708 178.025 501.587 177.941C501.466 177.857 501.322 177.812 501.175 177.812C501.027 177.812 500.884 177.857 500.763 177.941C500.642 178.025 500.549 178.144 500.498 178.282L496.294 189.635C496.18 189.949 496.18 190.294 496.294 190.609L508.141 222.586L516.505 217.831L501.852 178.282Z" fill="#12AAFF"/>
<path d="M486.99 153.421C487.198 153.429 487.403 153.482 487.588 153.578L519.485 171.713C519.664 171.816 519.814 171.963 519.919 172.142C520.024 172.32 520.081 172.523 520.083 172.73V208.996C520.083 209.419 519.855 209.803 519.485 210.012L487.588 228.153C487.406 228.255 487.199 228.308 486.99 228.305C486.783 228.298 486.581 228.246 486.396 228.153L454.5 210.031C454.32 209.928 454.169 209.78 454.064 209.601C453.959 209.421 453.903 209.218 453.901 209.01V172.739C453.901 172.316 454.129 171.932 454.5 171.718L486.396 153.582C486.577 153.479 486.782 153.424 486.99 153.421ZM486.99 148.125C485.859 148.125 484.719 148.41 483.703 148.994L451.816 167.125C450.82 167.685 449.99 168.501 449.412 169.487C448.833 170.473 448.527 171.596 448.524 172.739V209.005C448.524 211.319 449.778 213.461 451.816 214.615L483.708 232.755C484.712 233.322 485.846 233.62 486.999 233.62C488.153 233.62 489.287 233.322 490.291 232.755L522.183 214.62C523.179 214.059 524.009 213.244 524.587 212.257C525.166 211.271 525.472 210.149 525.474 209.005V172.739C525.472 171.596 525.166 170.473 524.587 169.487C524.009 168.501 523.179 167.685 522.183 167.125L490.282 148.994C489.278 148.423 488.144 148.124 486.99 148.125Z" fill="#9DCCED"/>
<path d="M465.904 222.628L468.835 214.714L474.744 219.55L469.22 224.518L465.904 222.628Z" fill="#213147"/>
<path d="M484.305 170.141H476.221C475.926 170.138 475.638 170.226 475.395 170.394C475.153 170.561 474.968 170.8 474.867 171.077L457.534 217.874L465.899 222.629L484.984 171.096C485.023 170.988 485.034 170.872 485.018 170.759C485.002 170.645 484.959 170.537 484.892 170.444C484.826 170.351 484.737 170.275 484.635 170.223C484.533 170.171 484.42 170.14 484.305 170.141ZM498.455 170.141H490.366C490.072 170.139 489.785 170.228 489.543 170.395C489.302 170.563 489.118 170.801 489.017 171.077L469.224 224.514L477.589 229.264L499.13 171.096C499.168 170.988 499.18 170.873 499.164 170.76C499.148 170.647 499.105 170.539 499.039 170.446C498.973 170.353 498.885 170.277 498.784 170.225C498.682 170.173 498.57 170.141 498.455 170.141Z" fill="white"/>
<g clip-path="url(#clip6_1625_25391)">
<path d="M92 470.875C121.823 470.875 146 446.474 146 416.375C146 386.275 121.823 361.875 92 361.875C62.1766 361.875 38 386.275 38 416.375C38 446.474 62.1766 470.875 92 470.875Z" fill="#E84142"/>
<path fill-rule="evenodd" clip-rule="evenodd" d="M76.8725 439.366H66.653C64.5065 439.366 63.4467 439.366 62.7987 438.947C62.4573 438.723 62.1731 438.42 61.9691 438.064C61.765 437.707 61.6469 437.308 61.6242 436.897C61.5837 436.127 62.1136 435.184 63.1767 433.303L88.3947 388.365C89.468 386.457 90.0147 385.503 90.6965 385.149C91.0614 384.962 91.465 384.864 91.8744 384.864C92.2837 384.864 92.6873 384.962 93.0522 385.149C93.7374 385.503 94.2807 386.457 95.354 388.365L100.538 397.514L100.565 397.562C101.723 399.605 102.31 400.648 102.566 401.738C102.853 402.931 102.853 404.176 102.566 405.369C102.31 406.469 101.726 407.515 100.551 409.592L87.3012 433.266L87.2675 433.324C86.0997 435.388 85.5125 436.434 84.689 437.224C83.8014 438.079 82.7258 438.709 81.5502 439.063C80.4736 439.366 79.2755 439.366 76.8725 439.366ZM102.668 439.366H117.302C119.462 439.366 120.548 439.366 121.196 438.937C121.54 438.711 121.826 438.405 122.03 438.046C122.234 437.686 122.351 437.283 122.371 436.87C122.408 436.124 121.892 435.221 120.876 433.446L120.768 433.262L113.437 420.584L113.353 420.441C112.323 418.68 111.8 417.791 111.135 417.447C110.774 417.26 110.373 417.162 109.966 417.162C109.559 417.162 109.159 417.26 108.797 417.447C108.122 417.801 107.582 418.731 106.508 420.598L99.2015 433.276L99.1779 433.32C98.108 435.187 97.5714 436.117 97.6119 436.883C97.6351 437.296 97.7534 437.697 97.9573 438.056C98.1611 438.414 98.445 438.719 98.7864 438.947C99.4209 439.366 100.508 439.366 102.668 439.366Z" fill="white"/>
</g>
<path d="M247.948 79.2584L214.93 131.837C214.527 132.476 213.969 133.002 213.308 133.366C212.646 133.729 211.903 133.919 211.148 133.916C210.393 133.914 209.651 133.719 208.992 133.351C208.333 132.983 207.778 132.453 207.38 131.812L175.005 79.2331C174.097 77.7613 173.619 76.0643 173.625 74.3346C173.664 71.7794 174.716 69.3441 176.55 67.5645C178.384 65.7849 180.85 64.8066 183.405 64.8448H239.637C245.011 64.8406 249.375 69.0742 249.375 74.3094C249.375 76.0474 248.887 77.7644 247.948 79.2584ZM182.959 77.4909L207.043 114.634V73.7539H185.476C182.984 73.7539 181.869 75.4035 182.959 77.4993M215.952 114.642L240.045 77.4909C241.16 75.3993 240.02 73.7455 237.524 73.7455H215.961L215.952 114.642Z" fill="#0088CC"/>
<g clip-path="url(#clip7_1625_25391)">
<path d="M356.5 374.875C384.39 374.875 407 352.265 407 324.375C407 296.484 384.39 273.875 356.5 273.875C328.61 273.875 306 296.484 306 324.375C306 352.265 328.61 374.875 356.5 374.875Z" fill="#F7931A"/>
<path d="M379.191 318.125C380.182 311.51 375.141 307.953 368.254 305.579L370.489 296.615L365.035 295.258L362.857 303.985C361.424 303.625 359.954 303.291 358.486 302.956L360.679 294.172L355.225 292.812L352.991 301.773C351.802 301.505 350.64 301.232 349.506 300.952L349.513 300.924L341.988 299.046L340.536 304.872C340.536 304.872 344.586 305.8 344.501 305.857C346.71 306.409 347.108 307.87 347.041 309.032L344.497 319.242C344.651 319.278 344.84 319.338 345.065 319.422L344.488 319.28L340.921 333.584C340.65 334.254 339.965 335.26 338.418 334.879C338.475 334.957 334.454 333.891 334.454 333.891L331.746 340.134L338.848 341.904C340.167 342.236 341.461 342.583 342.733 342.908L340.476 351.973L345.927 353.33L348.162 344.366C349.649 344.766 351.099 345.142 352.511 345.493L350.283 354.419L355.737 355.776L357.993 346.73C367.298 348.491 374.292 347.781 377.237 339.367C379.611 332.593 377.12 328.683 372.225 326.136C375.792 325.315 378.474 322.97 379.191 318.125ZM366.724 335.604C365.041 342.381 353.632 338.717 349.932 337.798L352.931 325.789C356.63 326.713 368.488 328.541 366.724 335.604ZM368.412 318.027C366.875 324.191 357.381 321.057 354.304 320.29L357.018 309.401C360.096 310.168 370.016 311.598 368.412 318.027Z" fill="white"/>
</g>
<defs>
<clipPath id="clip0_1625_25391">
<rect width="112" height="112" fill="white" transform="translate(432 365.875)"/>
</clipPath>
<clipPath id="clip1_1625_25391">
<rect width="111" height="111" fill="white" transform="translate(303 384.875)"/>
</clipPath>
<clipPath id="clip2_1625_25391">
<rect width="85" height="85" fill="white" transform="translate(445 263.875)"/>
</clipPath>
<clipPath id="clip3_1625_25391">
<rect width="66" height="66" fill="white" transform="translate(348 185.875)"/>
</clipPath>
<clipPath id="clip4_1625_25391">
<rect width="90" height="90" fill="white" transform="translate(185 251.875)"/>
</clipPath>
<clipPath id="clip5_1625_25391">
<rect width="82" height="82" fill="white" transform="translate(120 144.875)"/>
</clipPath>
<clipPath id="clip6_1625_25391">
<rect width="108" height="109" fill="white" transform="translate(38 361.875)"/>
</clipPath>
<clipPath id="clip7_1625_25391">
<rect width="101" height="101" fill="white" transform="translate(306 273.875)"/>
</clipPath>
</defs>
</svg>
