<svg width="681" height="554" viewBox="0 0 681 554" fill="none" xmlns="http://www.w3.org/2000/svg">
<rect width="681" height="554" rx="30" fill="#CBBDFF"/>
<path d="M201.653 418.11C209.483 420.909 429.556 481.524 527.299 378.376C625.041 275.228 567.358 88.0183 410.838 84.0909C383.177 83.3968 354.571 86.5188 329.49 98.9488C304.496 111.337 289.054 133.51 271.708 154.399C260.104 168.373 246.036 181.824 228.234 187.152C208.512 193.055 187.098 188.142 167.773 196.064C133.921 209.941 113.029 244.899 108.161 280.081C99.2207 344.68 143.005 397.149 201.654 418.11H201.653Z" fill="#946EEF" fill-opacity="0.301961"/>
<path d="M569.09 443.46C569.09 458.085 467.499 469.94 342.181 469.94C216.862 469.94 115.271 458.084 115.271 443.46C115.271 428.835 216.862 416.979 342.181 416.979C467.499 416.979 569.09 428.835 569.09 443.46Z" fill="#946EEF"/>
<path d="M279.827 446.908H139.894C135.418 446.908 131.79 443.279 131.79 438.804V355.947C131.79 351.472 135.419 347.843 139.894 347.843H279.827C284.302 347.843 287.931 351.472 287.931 355.947V438.804C287.931 443.279 284.302 446.908 279.827 446.908Z" fill="#512DA8"/>
<path d="M287.93 432.047H131.789V413.68H287.93V432.047Z" fill="#421F96"/>
<path d="M185.51 383.419H143.316C142.371 383.419 141.604 382.653 141.604 381.708V381.509C141.604 380.563 142.371 379.797 143.316 379.797H185.51C186.456 379.797 187.222 380.563 187.222 381.509V381.708C187.222 382.653 186.456 383.419 185.51 383.419Z" fill="#946EEF"/>
<path d="M185.51 390.555H143.316C142.371 390.555 141.604 389.789 141.604 388.843V388.645C141.604 387.699 142.371 386.933 143.316 386.933H185.51C186.456 386.933 187.222 387.699 187.222 388.645V388.843C187.222 389.789 186.456 390.555 185.51 390.555Z" fill="#946EEF"/>
<path d="M185.51 397.692H143.316C142.371 397.692 141.604 396.926 141.604 395.98V395.782C141.604 394.836 142.371 394.07 143.316 394.07H185.51C186.456 394.07 187.222 394.836 187.222 395.782V395.98C187.222 396.926 186.456 397.692 185.51 397.692Z" fill="#946EEF"/>
<path d="M274.719 397.376H219.1C217.224 397.376 215.704 395.855 215.704 393.981V383.938C215.704 382.062 217.225 380.542 219.1 380.542H274.719C276.595 380.542 278.115 382.063 278.115 383.938V393.981C278.115 395.856 276.594 397.376 274.719 397.376Z" fill="#946EEF"/>
<path d="M493.792 453.499H316.419C310.952 453.499 306.521 449.066 306.521 443.6V134.887C306.521 129.42 310.953 124.989 316.419 124.989H493.792C499.259 124.989 503.691 129.421 503.691 134.887V443.6C503.691 449.066 499.259 453.499 493.792 453.499Z" fill="white" stroke="#421F96" stroke-width="4.19904" stroke-miterlimit="2.61313" stroke-linejoin="round"/>
<path d="M305.478 184.418C303.599 184.418 302.074 182.893 302.074 181.014V156.73C302.074 154.85 303.599 153.326 305.478 153.326V184.419V184.418Z" fill="#421F96"/>
<path d="M460.712 124.333C460.712 122.452 462.235 120.929 464.116 120.929H488.4C490.281 120.929 491.804 122.452 491.804 124.333H460.713H460.712Z" fill="#421F96"/>
<path d="M305.478 219.822C303.599 219.822 302.074 218.298 302.074 216.418V192.134C302.074 190.254 303.599 188.73 305.478 188.73V219.822Z" fill="#421F96"/>
<path d="M442.374 135.907H367.836C363.48 135.907 359.699 134.005 358.716 131.319L356.396 124.989H453.815L451.496 131.319C450.512 134.005 446.731 135.907 442.375 135.907H442.374Z" fill="#421F96"/>
<path d="M433.251 130.448H386.033C385.222 130.448 384.564 129.791 384.564 128.98C384.564 128.168 385.222 127.511 386.033 127.511H433.251C434.062 127.511 434.72 128.168 434.72 128.98C434.72 129.791 434.062 130.448 433.251 130.448Z" fill="#5B6487"/>
<path d="M378.43 128.979C378.43 129.79 377.772 130.447 376.961 130.447C376.15 130.447 375.492 129.79 375.492 128.979C375.492 128.167 376.15 127.51 376.961 127.51C377.772 127.51 378.43 128.167 378.43 128.979Z" fill="#5B6487"/>
<path d="M335.514 139.538H322.917C321.117 139.538 319.658 138.079 319.658 136.278V135.535C319.658 133.735 321.117 132.276 322.917 132.276H335.514C337.314 132.276 338.773 133.735 338.773 135.535V136.278C338.773 138.078 337.314 139.538 335.514 139.538Z" fill="#946EEF"/>
<path d="M469.958 139.538H462.073C460.57 139.538 459.352 138.319 459.352 136.817V134.998C459.352 133.495 460.57 132.277 462.073 132.277H469.958C471.461 132.277 472.679 133.495 472.679 134.998V136.817C472.679 138.32 471.461 139.538 469.958 139.538Z" fill="#946EEF"/>
<path d="M487.831 139.538H479.946C478.443 139.538 477.225 138.319 477.225 136.817V134.998C477.225 133.495 478.443 132.277 479.946 132.277H487.831C489.334 132.277 490.552 133.495 490.552 134.998V136.817C490.552 138.32 489.333 139.538 487.831 139.538Z" fill="#946EEF"/>
<path d="M463.119 304.835C463.124 304.52 463.143 304.208 463.143 303.893C463.143 271.131 436.585 244.572 403.822 244.572C371.06 244.572 344.501 271.131 344.501 303.893C344.501 304.209 344.52 304.52 344.525 304.835H463.118H463.119Z" fill="#F7C800"/>
<path d="M446.641 304.835C446.648 304.52 446.665 304.208 446.665 303.892C446.665 280.231 427.484 261.05 403.822 261.05C380.161 261.05 360.979 280.231 360.979 303.892C360.979 304.209 360.997 304.52 361.003 304.835H446.641Z" fill="#E8A10C"/>
<path d="M443.568 304.835H446.64C446.647 304.52 446.664 304.208 446.664 303.892C446.664 298.32 445.589 293.002 443.653 288.119C444.158 290.749 444.431 293.461 444.431 296.238C444.431 299.183 444.134 302.058 443.567 304.836L443.568 304.835Z" fill="#E8800C"/>
<path d="M404.211 256.672C403.694 256.672 403.274 256.252 403.274 255.735V247.455C403.274 246.938 403.694 246.518 404.211 246.518C404.73 246.518 405.148 246.938 405.148 247.455V255.735C405.148 256.252 404.73 256.672 404.211 256.672Z" fill="#E8A10C"/>
<path d="M438.152 271.052C437.912 271.052 437.672 270.961 437.489 270.777C437.123 270.412 437.123 269.818 437.489 269.453L443.342 263.599C443.708 263.233 444.301 263.233 444.667 263.599C445.033 263.964 445.033 264.558 444.667 264.923L438.814 270.776C438.631 270.96 438.391 271.051 438.152 271.051V271.052Z" fill="#E8A10C"/>
<path d="M370.045 270.502C369.805 270.502 369.566 270.411 369.382 270.227L363.529 264.373C363.163 264.007 363.163 263.414 363.529 263.048C363.895 262.682 364.487 262.682 364.854 263.048L370.707 268.901C371.073 269.267 371.073 269.86 370.707 270.226C370.524 270.41 370.285 270.501 370.045 270.501V270.502Z" fill="#E8A10C"/>
<path d="M423.898 260.806C423.426 260.595 423.214 260.041 423.426 259.568L426.808 252.011C427.019 251.538 427.573 251.327 428.045 251.538C428.518 251.749 428.729 252.303 428.518 252.776L425.135 260.333C424.924 260.807 424.37 261.018 423.898 260.806Z" fill="#E8A10C"/>
<path d="M449.004 287.793C448.786 287.695 448.604 287.514 448.512 287.272C448.328 286.788 448.57 286.247 449.053 286.063L456.787 283.111C457.271 282.927 457.812 283.169 457.997 283.652C458.181 284.135 457.939 284.677 457.455 284.861L449.722 287.813C449.48 287.905 449.223 287.891 449.005 287.793H449.004Z" fill="#E8A10C"/>
<path d="M387.062 259.474C386.843 259.376 386.662 259.195 386.569 258.953L383.617 251.219C383.433 250.735 383.675 250.195 384.159 250.01C384.643 249.825 385.183 250.068 385.368 250.551L388.32 258.285C388.505 258.768 388.263 259.309 387.779 259.493C387.537 259.585 387.281 259.571 387.062 259.473V259.474Z" fill="#E8A10C"/>
<path d="M360.447 284.155C360.222 284.236 359.965 284.232 359.731 284.121L352.241 280.596C351.773 280.375 351.572 279.818 351.793 279.35C352.014 278.882 352.571 278.681 353.039 278.902L360.529 282.427C360.997 282.648 361.198 283.205 360.977 283.673C360.867 283.907 360.673 284.074 360.447 284.155Z" fill="#E8A10C"/>
<path d="M393.456 301.436C394.226 302.189 395.2 302.854 396.379 303.427C397.414 303.929 398.642 304.395 400.004 304.835H416.896C416.895 304.832 416.894 304.829 416.893 304.827C416.385 303.681 415.665 302.706 414.731 301.902C413.798 301.101 412.659 300.43 411.316 299.888C409.972 299.348 408.466 298.849 406.796 298.39L405.223 297.998V291.316C406.14 291.445 407.049 291.667 407.951 291.978C408.851 292.289 409.671 292.616 410.407 292.96C411.145 293.305 411.75 293.624 412.226 293.919C412.7 294.214 412.988 294.428 413.086 294.557L416.623 287.875C415.248 287.089 413.626 286.32 411.759 285.566C409.892 284.812 407.894 284.338 405.765 284.14V279.178H402.374V284.14C400.803 284.306 399.336 284.656 397.977 285.196C396.618 285.738 395.439 286.483 394.44 287.432C393.44 288.384 392.646 289.521 392.056 290.849C391.468 292.175 391.172 293.691 391.172 295.392C391.172 296.704 391.36 297.849 391.737 298.831C392.114 299.814 392.687 300.683 393.457 301.436H393.456ZM402.914 291.266V297.31C401.766 296.95 400.907 296.532 400.335 296.056C399.761 295.582 399.475 294.934 399.475 294.115C399.475 292.414 400.621 291.461 402.914 291.266Z" fill="#F7C800"/>
<path d="M332.07 304.835H478.14H332.07Z" fill="white" stroke="#421F96" stroke-width="1.87392" stroke-miterlimit="2.61313" stroke-linejoin="round"/>
<path d="M461.827 187.456H348.385C340.887 187.456 334.753 181.321 334.753 173.824C334.753 166.326 340.887 160.192 348.385 160.192H461.827C469.325 160.192 475.459 166.326 475.459 173.824C475.459 181.321 469.325 187.456 461.827 187.456Z" fill="#421F96"/>
<path d="M365.57 179.511H362.501L362.169 168.723L356.795 179.511H353.665L353.112 164.758H356.08L356.211 175.083L361.273 164.758H364.564L364.906 174.972L369.767 164.758H372.706L365.57 179.511ZM373.883 164.758H376.771L376.228 167.374H373.34L373.883 164.758ZM373.038 168.824H375.926L373.692 179.511H370.804L373.038 168.824ZM377.265 170.967L377.707 168.824H379.116L379.468 167.113L382.779 165.12L382.005 168.824H383.766L383.323 170.967H381.552L380.616 175.445C380.448 176.257 380.364 176.72 380.364 176.834C380.364 177.056 380.435 177.23 380.576 177.358C380.716 177.478 380.971 177.539 381.34 177.539C381.468 177.539 381.787 177.515 382.296 177.468L381.844 179.612C381.347 179.713 380.837 179.763 380.314 179.763C379.294 179.763 378.553 179.568 378.09 179.179C377.627 178.783 377.395 178.236 377.395 177.539C377.395 177.21 377.519 176.452 377.768 175.264L378.663 170.967H377.265ZM386.332 179.511H383.444L386.533 164.758H389.422L388.315 170.011C388.965 169.501 389.572 169.136 390.136 168.914C390.7 168.686 391.303 168.572 391.948 168.572C392.813 168.572 393.497 168.82 394.001 169.317C394.504 169.813 394.755 170.464 394.755 171.269C394.755 171.698 394.661 172.363 394.474 173.262L393.165 179.511H390.277L391.615 173.141C391.756 172.45 391.827 172.007 391.827 171.812C391.827 171.457 391.716 171.172 391.495 170.957C391.273 170.742 390.971 170.635 390.589 170.635C390.106 170.635 389.643 170.803 389.2 171.138C388.623 171.581 388.184 172.124 387.882 172.769C387.714 173.124 387.493 173.959 387.218 175.274L386.332 179.511ZM405.876 179.511H403.138L403.38 178.354C402.857 178.857 402.34 179.219 401.83 179.441C401.327 179.655 400.757 179.763 400.119 179.763C399.012 179.763 398.113 179.387 397.422 178.636C396.738 177.878 396.396 176.76 396.396 175.284C396.396 173.574 396.879 172.027 397.845 170.645C398.811 169.263 400.089 168.572 401.679 168.572C403.115 168.572 404.192 169.142 404.91 170.283L406.067 164.758H408.955L405.876 179.511ZM399.203 175.164C399.203 175.929 399.395 176.526 399.777 176.955C400.166 177.384 400.643 177.599 401.206 177.599C401.729 177.599 402.216 177.421 402.665 177.066C403.122 176.703 403.484 176.153 403.752 175.415C404.027 174.677 404.165 173.969 404.165 173.292C404.165 172.52 403.957 171.896 403.541 171.42C403.125 170.944 402.645 170.705 402.102 170.705C401.256 170.705 400.562 171.175 400.019 172.114C399.475 173.054 399.203 174.07 399.203 175.164ZM410.676 168.824H413.373L412.94 170.897C413.947 169.347 415.037 168.572 416.211 168.572C416.627 168.572 417.073 168.676 417.55 168.884L416.443 171.249C416.181 171.155 415.903 171.108 415.607 171.108C415.111 171.108 414.604 171.296 414.088 171.672C413.578 172.047 413.179 172.55 412.89 173.181C412.602 173.805 412.317 174.798 412.035 176.16L411.33 179.511H408.442L410.676 168.824ZM420.71 171.853L417.892 171.611C418.214 170.659 418.774 169.914 419.572 169.377C420.378 168.84 421.441 168.572 422.763 168.572C424.138 168.572 425.154 168.85 425.812 169.407C426.469 169.957 426.798 170.632 426.798 171.43C426.798 171.752 426.768 172.094 426.708 172.457C426.654 172.819 426.456 173.772 426.114 175.315C425.832 176.589 425.691 177.482 425.691 177.992C425.691 178.448 425.772 178.954 425.933 179.511H423.125C423.011 179.122 422.94 178.72 422.914 178.304C422.491 178.773 422.005 179.136 421.454 179.39C420.904 179.639 420.351 179.763 419.794 179.763C418.908 179.763 418.177 179.474 417.6 178.897C417.023 178.314 416.734 177.566 416.734 176.653C416.734 175.633 417.05 174.818 417.68 174.208C418.318 173.597 419.452 173.228 421.082 173.101C422.457 172.987 423.377 172.849 423.839 172.688C423.96 172.285 424.021 171.963 424.021 171.722C424.021 171.413 423.897 171.155 423.648 170.947C423.4 170.739 423.031 170.635 422.541 170.635C422.025 170.635 421.615 170.742 421.313 170.957C421.018 171.165 420.817 171.464 420.71 171.853ZM423.457 174.53C423.283 174.577 423.051 174.62 422.763 174.661C421.313 174.835 420.368 175.09 419.925 175.425C419.609 175.667 419.452 175.992 419.452 176.402C419.452 176.737 419.572 177.022 419.814 177.257C420.056 177.485 420.374 177.599 420.77 177.599C421.206 177.599 421.615 177.495 421.998 177.287C422.387 177.072 422.675 176.801 422.863 176.472C423.058 176.137 423.229 175.617 423.377 174.912L423.457 174.53ZM439.277 179.511H436.56L436.037 172.708L432.776 179.511H430.099L428.761 168.824H431.327L432.072 175.989L435.403 168.824H438.029L438.392 175.989L441.703 168.824H444.601L439.277 179.511ZM448.224 171.853L445.406 171.611C445.728 170.659 446.288 169.914 447.087 169.377C447.892 168.84 448.955 168.572 450.277 168.572C451.652 168.572 452.669 168.85 453.326 169.407C453.984 169.957 454.312 170.632 454.312 171.43C454.312 171.752 454.282 172.094 454.222 172.457C454.168 172.819 453.97 173.772 453.628 175.315C453.346 176.589 453.205 177.482 453.205 177.992C453.205 178.448 453.286 178.954 453.447 179.511H450.639C450.525 179.122 450.455 178.72 450.428 178.304C450.005 178.773 449.519 179.136 448.969 179.39C448.418 179.639 447.865 179.763 447.308 179.763C446.423 179.763 445.691 179.474 445.114 178.897C444.537 178.314 444.249 177.566 444.249 176.653C444.249 175.633 444.564 174.818 445.195 174.208C445.832 173.597 446.966 173.228 448.596 173.101C449.972 172.987 450.891 172.849 451.354 172.688C451.474 172.285 451.535 171.963 451.535 171.722C451.535 171.413 451.411 171.155 451.163 170.947C450.914 170.739 450.545 170.635 450.056 170.635C449.539 170.635 449.13 170.742 448.828 170.957C448.533 171.165 448.331 171.464 448.224 171.853ZM450.971 174.53C450.797 174.577 450.565 174.62 450.277 174.661C448.828 174.835 447.882 175.09 447.439 175.425C447.124 175.667 446.966 175.992 446.966 176.402C446.966 176.737 447.087 177.022 447.328 177.257C447.57 177.485 447.888 177.599 448.284 177.599C448.72 177.599 449.13 177.495 449.512 177.287C449.901 177.072 450.19 176.801 450.378 176.472C450.572 176.137 450.743 175.617 450.891 174.912L450.971 174.53ZM455.601 179.511L458.69 164.758H461.568L458.489 179.511H455.601Z" fill="white"/>
<path d="M475.459 347.751H334.752V330.329H475.459V347.751Z" fill="#946EEF"/>
<path d="M407.265 347.751H334.752V330.329H407.265V347.751Z" fill="#512DA8"/>
<path d="M433.139 398.237H377.071" stroke="#421F96" stroke-width="1.02528" stroke-miterlimit="10"/>
<path d="M377.072 398.237C370.548 398.237 365.208 392.899 365.208 386.374" stroke="#421F96" stroke-width="1.02528" stroke-miterlimit="10"/>
<path d="M365.208 386.373C365.208 379.848 370.547 374.51 377.072 374.51" stroke="#421F96" stroke-width="1.02528" stroke-miterlimit="10"/>
<path d="M377.071 374.51H433.139" stroke="#421F96" stroke-width="1.02528" stroke-miterlimit="10"/>
<path d="M433.139 374.51C439.664 374.51 445.002 379.848 445.002 386.373" stroke="#421F96" stroke-width="1.02528" stroke-miterlimit="10"/>
<path d="M445.002 386.374C445.002 392.899 439.664 398.237 433.139 398.237" stroke="#421F96" stroke-width="1.02528" stroke-miterlimit="10"/>
<path d="M382.785 388.84L385.299 388.708C385.334 389.508 385.471 390.048 385.71 390.329C386.096 390.784 386.808 391.012 387.847 391.012C388.711 391.012 389.336 390.857 389.722 390.548C390.107 390.238 390.3 389.865 390.3 389.427C390.3 389.047 390.142 388.726 389.827 388.463C389.605 388.271 388.995 387.958 387.996 387.526C387.004 387.094 386.277 386.735 385.815 386.449C385.36 386.157 385.001 385.78 384.738 385.319C384.475 384.858 384.344 384.318 384.344 383.699C384.344 382.619 384.735 381.722 385.518 381.01C386.3 380.298 387.433 379.942 388.916 379.942C390.422 379.942 391.587 380.295 392.41 381.001C393.239 381.708 393.695 382.648 393.777 383.821L391.245 383.935C391.181 383.322 390.959 382.852 390.58 382.525C390.2 382.198 389.64 382.035 388.898 382.035C388.168 382.035 387.646 382.163 387.331 382.42C387.021 382.677 386.866 383.001 386.866 383.392C386.866 383.76 387.009 384.064 387.296 384.303C387.582 384.548 388.215 384.884 389.196 385.31C390.673 385.947 391.613 386.463 392.016 386.861C392.618 387.444 392.918 388.195 392.918 389.111C392.918 390.244 392.469 391.213 391.57 392.019C390.676 392.819 389.43 393.219 387.83 393.219C386.726 393.219 385.769 393.035 384.957 392.667C384.151 392.294 383.582 391.777 383.249 391.117C382.916 390.457 382.762 389.698 382.785 388.84ZM394.346 393L397.026 380.16H406.546L406.099 382.306H399.224L398.611 385.223H405.259L404.812 387.368H398.164L397.359 390.854H404.829L404.374 393H394.346ZM416.574 393H414.113L410.645 384.373L408.841 393H406.38L409.06 380.16H411.529L415.006 388.752L416.802 380.16H419.254L416.574 393ZM419.315 393L422.004 380.16H425.464C426.427 380.16 427.043 380.175 427.312 380.204C427.843 380.257 428.316 380.365 428.73 380.528C429.151 380.692 429.53 380.922 429.869 381.22C430.214 381.512 430.508 381.865 430.754 382.28C431.005 382.695 431.197 383.173 431.332 383.716C431.466 384.253 431.533 384.843 431.533 385.485C431.533 386.869 431.267 388.098 430.736 389.173C430.211 390.241 429.548 391.091 428.748 391.721C428.135 392.212 427.344 392.574 426.375 392.807C425.826 392.936 424.982 393 423.843 393H419.315ZM422.39 390.933H423.73C424.699 390.933 425.399 390.875 425.832 390.758C426.269 390.635 426.669 390.41 427.031 390.084C427.551 389.611 427.989 388.98 428.345 388.192C428.701 387.404 428.879 386.475 428.879 385.407C428.879 384.496 428.73 383.813 428.433 383.357C428.141 382.896 427.779 382.589 427.347 382.438C427.043 382.333 426.503 382.28 425.726 382.28H424.194L422.39 390.933Z" fill="#421F96"/>
<path d="M470.988 209.931H338.727C336.668 209.931 334.999 208.262 334.999 206.203C334.999 204.145 336.668 202.476 338.727 202.476H470.988C473.046 202.476 474.714 204.145 474.714 206.203C474.714 208.261 473.046 209.931 470.988 209.931Z" fill="#946EEF"/>
<path d="M471.484 424.054H339.223C337.165 424.054 335.495 422.385 335.495 420.326C335.495 418.268 337.164 416.599 339.223 416.599H471.484C473.542 416.599 475.211 418.268 475.211 420.326C475.211 422.384 473.542 424.054 471.484 424.054Z" fill="#946EEF"/>
<path d="M471.484 227.112H339.223C337.165 227.112 335.495 225.443 335.495 223.384C335.495 221.326 337.164 219.657 339.223 219.657H471.484C473.542 219.657 475.211 221.326 475.211 223.384C475.211 225.442 473.542 227.112 471.484 227.112Z" fill="#946EEF"/>
<path d="M361.836 443.138C361.836 445.61 356.118 447.851 346.862 449.473C337.575 451.08 324.734 452.084 310.534 452.084C296.349 452.084 283.508 451.08 274.221 449.473C264.981 447.851 259.248 445.61 259.248 443.138C259.248 438.193 282.21 434.191 310.534 434.191C338.873 434.191 361.836 438.193 361.836 443.138Z" fill="#E8A10C"/>
<path d="M347.1 443.138C347.1 444.9 343.025 446.497 336.428 447.654C329.809 448.799 320.657 449.515 310.536 449.515C300.427 449.515 291.274 448.799 284.656 447.654C278.07 446.497 273.983 444.901 273.983 443.138C273.983 439.614 290.349 436.761 310.536 436.761C330.734 436.761 347.1 439.613 347.1 443.138Z" fill="#E8A10C"/>
<path d="M275.067 444.685C279.023 441.907 293.399 439.852 310.535 439.852C327.682 439.852 342.061 441.908 346.016 444.686C346.72 444.19 347.099 443.672 347.099 443.139C347.099 439.615 330.734 436.762 310.535 436.762C290.348 436.762 273.982 439.614 273.982 443.139C273.982 443.673 274.363 444.189 275.067 444.686V444.685Z" fill="#E8800C"/>
<path d="M361.836 443.138V455.778C361.836 460.723 338.873 464.726 310.534 464.726C282.21 464.726 259.248 460.723 259.248 455.778V443.138C259.248 445.61 264.981 447.851 274.221 449.473C283.508 451.08 296.349 452.084 310.534 452.084C324.734 452.084 337.575 451.08 346.862 449.473C356.118 447.851 361.836 445.61 361.836 443.138Z" fill="#F7C800"/>
<path d="M266.222 448.792V458.919" stroke="#E8A10C" stroke-width="1.54464" stroke-miterlimit="10" stroke-linecap="round" stroke-linejoin="round"/>
<path d="M281.477 451.883V462.009" stroke="#E8A10C" stroke-width="1.54464" stroke-miterlimit="10" stroke-linecap="round" stroke-linejoin="round"/>
<path d="M296.731 452.935V463.061" stroke="#E8A10C" stroke-width="1.54464" stroke-miterlimit="10" stroke-linecap="round" stroke-linejoin="round"/>
<path d="M311.987 453.429V463.555" stroke="#E8A10C" stroke-width="1.54464" stroke-miterlimit="10" stroke-linecap="round" stroke-linejoin="round"/>
<path d="M327.241 452.935V463.061" stroke="#E8A10C" stroke-width="1.54464" stroke-miterlimit="10" stroke-linecap="round" stroke-linejoin="round"/>
<path d="M342.497 451.883V462.009" stroke="#E8A10C" stroke-width="1.54464" stroke-miterlimit="10" stroke-linecap="round" stroke-linejoin="round"/>
<path d="M357.751 447.691V457.817" stroke="#E8A10C" stroke-width="1.54464" stroke-miterlimit="10" stroke-linecap="round" stroke-linejoin="round"/>
<path d="M340.502 424.857C340.502 427.33 334.785 429.57 325.529 431.193C316.242 432.8 303.401 433.804 289.201 433.804C275.016 433.804 262.175 432.8 252.888 431.193C243.647 429.57 237.915 427.33 237.915 424.857C237.915 419.912 260.877 415.91 289.201 415.91C317.54 415.91 340.502 419.912 340.502 424.857Z" fill="#E8A10C"/>
<path d="M325.766 424.857C325.766 426.618 321.692 428.216 315.094 429.373C308.475 430.518 299.323 431.234 289.202 431.234C279.093 431.234 269.941 430.518 263.322 429.373C256.736 428.216 252.65 426.619 252.65 424.857C252.65 421.333 269.015 418.48 289.202 418.48C309.401 418.48 325.766 421.333 325.766 424.857Z" fill="#E8A10C"/>
<path d="M253.734 426.403C257.69 423.626 272.066 421.571 289.202 421.571C306.349 421.571 320.728 423.626 324.682 426.403C325.386 425.908 325.765 425.39 325.765 424.857C325.765 421.333 309.4 418.48 289.201 418.48C269.014 418.48 252.648 421.333 252.648 424.857C252.648 425.391 253.029 425.908 253.732 426.403H253.734Z" fill="#E8800C"/>
<path d="M340.502 424.857V437.497C340.502 442.442 317.54 446.444 289.201 446.444C260.877 446.444 237.915 442.442 237.915 437.497V424.857C237.915 427.33 243.648 429.57 252.888 431.193C262.175 432.8 275.016 433.804 289.201 433.804C303.401 433.804 316.242 432.8 325.529 431.193C334.786 429.571 340.502 427.33 340.502 424.857Z" fill="#F7C800"/>
<path d="M244.888 430.51V440.636" stroke="#E8A10C" stroke-width="1.54464" stroke-miterlimit="10" stroke-linecap="round" stroke-linejoin="round"/>
<path d="M260.144 433.602V443.728" stroke="#E8A10C" stroke-width="1.54464" stroke-miterlimit="10" stroke-linecap="round" stroke-linejoin="round"/>
<path d="M275.398 434.654V444.78" stroke="#E8A10C" stroke-width="1.54464" stroke-miterlimit="10" stroke-linecap="round" stroke-linejoin="round"/>
<path d="M290.653 435.146V445.273" stroke="#E8A10C" stroke-width="1.54464" stroke-miterlimit="10" stroke-linecap="round" stroke-linejoin="round"/>
<path d="M305.908 434.654V444.78" stroke="#E8A10C" stroke-width="1.54464" stroke-miterlimit="10" stroke-linecap="round" stroke-linejoin="round"/>
<path d="M321.164 433.602V443.728" stroke="#E8A10C" stroke-width="1.54464" stroke-miterlimit="10" stroke-linecap="round" stroke-linejoin="round"/>
<path d="M336.418 429.409V439.535" stroke="#E8A10C" stroke-width="1.54464" stroke-miterlimit="10" stroke-linecap="round" stroke-linejoin="round"/>
<path d="M357.203 407.634C357.203 410.107 351.485 412.346 342.23 413.97C332.943 415.577 320.102 416.581 305.901 416.581C291.716 416.581 278.875 415.577 269.588 413.97C260.347 412.347 254.615 410.107 254.615 407.634C254.615 402.689 277.577 398.687 305.901 398.687C334.24 398.687 357.203 402.689 357.203 407.634Z" fill="#E8A10C"/>
<path d="M342.466 407.634C342.466 409.395 338.392 410.993 331.794 412.149C325.175 413.295 316.023 414.011 305.903 414.011C295.793 414.011 286.64 413.295 280.022 412.149C273.436 410.993 269.35 409.396 269.35 407.634C269.35 404.109 285.716 401.257 305.903 401.257C326.101 401.257 342.466 404.109 342.466 407.634Z" fill="#E8A10C"/>
<path d="M270.434 409.179C274.391 406.403 288.767 404.347 305.903 404.347C323.049 404.347 337.428 406.403 341.383 409.18C342.087 408.685 342.466 408.166 342.466 407.634C342.466 404.109 326.101 401.256 305.903 401.256C285.716 401.256 269.35 404.108 269.35 407.634C269.35 408.167 269.73 408.685 270.434 409.18V409.179Z" fill="#E8800C"/>
<path d="M357.203 407.634V420.274C357.203 425.219 334.24 429.221 305.901 429.221C277.577 429.221 254.615 425.219 254.615 420.274V407.634C254.615 410.107 260.348 412.346 269.588 413.97C278.875 415.577 291.716 416.581 305.901 416.581C320.103 416.581 332.943 415.577 342.23 413.97C351.485 412.347 357.203 410.107 357.203 407.634Z" fill="#F7C800"/>
<path d="M261.588 413.287V423.413" stroke="#E8A10C" stroke-width="1.54464" stroke-miterlimit="10" stroke-linecap="round" stroke-linejoin="round"/>
<path d="M276.844 416.378V426.504" stroke="#E8A10C" stroke-width="1.54464" stroke-miterlimit="10" stroke-linecap="round" stroke-linejoin="round"/>
<path d="M292.099 417.431V427.557" stroke="#E8A10C" stroke-width="1.54464" stroke-miterlimit="10" stroke-linecap="round" stroke-linejoin="round"/>
<path d="M307.354 417.923V428.049" stroke="#E8A10C" stroke-width="1.54464" stroke-miterlimit="10" stroke-linecap="round" stroke-linejoin="round"/>
<path d="M322.608 417.431V427.557" stroke="#E8A10C" stroke-width="1.54464" stroke-miterlimit="10" stroke-linecap="round" stroke-linejoin="round"/>
<path d="M337.864 416.378V426.504" stroke="#E8A10C" stroke-width="1.54464" stroke-miterlimit="10" stroke-linecap="round" stroke-linejoin="round"/>
<path d="M353.118 412.186V422.312" stroke="#E8A10C" stroke-width="1.54464" stroke-miterlimit="10" stroke-linecap="round" stroke-linejoin="round"/>
<path d="M336.418 388.263C336.418 390.735 330.701 392.975 321.445 394.598C312.158 396.205 299.317 397.209 285.117 397.209C270.932 397.209 258.091 396.205 248.804 394.598C239.564 392.975 233.831 390.735 233.831 388.263C233.831 383.318 256.793 379.315 285.117 379.315C313.456 379.315 336.418 383.318 336.418 388.263Z" fill="#E8A10C"/>
<path d="M321.683 388.263C321.683 390.025 317.608 391.622 311.011 392.779C304.392 393.924 295.24 394.64 285.119 394.64C275.01 394.64 265.857 393.924 259.239 392.779C252.653 391.622 248.567 390.026 248.567 388.263C248.567 384.739 264.933 381.886 285.12 381.886C305.318 381.886 321.684 384.738 321.684 388.263H321.683Z" fill="#E8A10C"/>
<path d="M249.65 389.81C253.606 387.032 267.982 384.977 285.118 384.977C302.265 384.977 316.644 387.033 320.599 389.811C321.303 389.315 321.682 388.797 321.682 388.264C321.682 384.74 305.316 381.887 285.118 381.887C264.931 381.887 248.565 384.739 248.565 388.264C248.565 388.797 248.946 389.314 249.65 389.811V389.81Z" fill="#E8800C"/>
<path d="M336.418 388.263V400.902C336.418 405.847 313.456 409.849 285.117 409.849C256.793 409.849 233.831 405.847 233.831 400.902V388.263C233.831 390.735 239.564 392.975 248.804 394.598C258.091 396.205 270.932 397.209 285.117 397.209C299.317 397.209 312.158 396.205 321.445 394.598C330.702 392.975 336.418 390.735 336.418 388.263Z" fill="#F7C800"/>
<path d="M240.806 393.917V404.043" stroke="#E8A10C" stroke-width="1.54464" stroke-miterlimit="10" stroke-linecap="round" stroke-linejoin="round"/>
<path d="M256.06 397.007V407.133" stroke="#E8A10C" stroke-width="1.54464" stroke-miterlimit="10" stroke-linecap="round" stroke-linejoin="round"/>
<path d="M271.314 398.06V408.186" stroke="#E8A10C" stroke-width="1.54464" stroke-miterlimit="10" stroke-linecap="round" stroke-linejoin="round"/>
<path d="M286.57 398.553V408.679" stroke="#E8A10C" stroke-width="1.54464" stroke-miterlimit="10" stroke-linecap="round" stroke-linejoin="round"/>
<path d="M301.824 398.06V408.186" stroke="#E8A10C" stroke-width="1.54464" stroke-miterlimit="10" stroke-linecap="round" stroke-linejoin="round"/>
<path d="M317.08 397.007V407.133" stroke="#E8A10C" stroke-width="1.54464" stroke-miterlimit="10" stroke-linecap="round" stroke-linejoin="round"/>
<path d="M332.334 392.816V402.942" stroke="#E8A10C" stroke-width="1.54464" stroke-miterlimit="10" stroke-linecap="round" stroke-linejoin="round"/>
<path d="M323.69 349.08C323.69 372.394 304.79 391.293 281.477 391.293C258.163 391.293 239.264 372.394 239.264 349.08C239.264 325.767 258.163 306.867 281.477 306.867C304.79 306.867 323.69 325.767 323.69 349.08Z" fill="#F7C800"/>
<path d="M311.964 349.08C311.964 365.918 298.314 379.567 281.477 379.567C264.64 379.567 250.99 365.918 250.99 349.08C250.99 332.243 264.64 318.594 281.477 318.594C298.314 318.594 311.964 332.243 311.964 349.08Z" fill="#E8A10C"/>
<path d="M309.821 337.856C310.18 339.727 310.375 341.658 310.375 343.634C310.375 360.472 296.725 374.121 279.888 374.121C267.016 374.121 256.016 366.139 251.544 354.859C254.245 368.932 266.616 379.568 281.477 379.568C298.314 379.568 311.963 365.919 311.963 349.081C311.963 345.115 311.198 341.332 309.821 337.857V337.856Z" fill="#E8800C"/>
<path d="M281.754 308.92V314.811" stroke="#E8A10C" stroke-width="1.33344" stroke-miterlimit="10" stroke-linecap="round" stroke-linejoin="round"/>
<path d="M310.07 320.878L305.904 325.044" stroke="#E8A10C" stroke-width="1.33344" stroke-miterlimit="10" stroke-linecap="round" stroke-linejoin="round"/>
<path d="M321.637 349.358H315.746" stroke="#E8A10C" stroke-width="1.33344" stroke-miterlimit="10" stroke-linecap="round" stroke-linejoin="round"/>
<path d="M309.678 377.674L305.513 373.509" stroke="#E8A10C" stroke-width="1.33344" stroke-miterlimit="10" stroke-linecap="round" stroke-linejoin="round"/>
<path d="M281.2 389.241V383.35" stroke="#E8A10C" stroke-width="1.33344" stroke-miterlimit="10" stroke-linecap="round" stroke-linejoin="round"/>
<path d="M252.883 377.282L257.048 373.117" stroke="#E8A10C" stroke-width="1.33344" stroke-miterlimit="10" stroke-linecap="round" stroke-linejoin="round"/>
<path d="M241.316 348.804H247.207" stroke="#E8A10C" stroke-width="1.33344" stroke-miterlimit="10" stroke-linecap="round" stroke-linejoin="round"/>
<path d="M253.274 320.487L257.441 324.652" stroke="#E8A10C" stroke-width="1.33344" stroke-miterlimit="10" stroke-linecap="round" stroke-linejoin="round"/>
<path d="M297.397 312.21L295.1 317.634" stroke="#E8A10C" stroke-width="1.33344" stroke-miterlimit="10" stroke-linecap="round" stroke-linejoin="round"/>
<path d="M318.806 334.267L313.346 336.477" stroke="#E8A10C" stroke-width="1.33344" stroke-miterlimit="10" stroke-linecap="round" stroke-linejoin="round"/>
<path d="M318.348 365.001L312.924 362.703" stroke="#E8A10C" stroke-width="1.33344" stroke-miterlimit="10" stroke-linecap="round" stroke-linejoin="round"/>
<path d="M296.291 386.41L294.08 380.95" stroke="#E8A10C" stroke-width="1.33344" stroke-miterlimit="10" stroke-linecap="round" stroke-linejoin="round"/>
<path d="M265.557 385.952L267.854 380.527" stroke="#E8A10C" stroke-width="1.33344" stroke-miterlimit="10" stroke-linecap="round" stroke-linejoin="round"/>
<path d="M244.147 363.895L249.608 361.684" stroke="#E8A10C" stroke-width="1.33344" stroke-miterlimit="10" stroke-linecap="round" stroke-linejoin="round"/>
<path d="M244.605 333.16L250.029 335.458" stroke="#E8A10C" stroke-width="1.33344" stroke-miterlimit="10" stroke-linecap="round" stroke-linejoin="round"/>
<path d="M266.663 311.751L268.874 317.212" stroke="#E8A10C" stroke-width="1.33344" stroke-miterlimit="10" stroke-linecap="round" stroke-linejoin="round"/>
<path d="M278.262 356.53C276.634 356.132 275.297 355.284 274.25 353.986C273.202 352.677 272.611 351.044 272.474 349.087L276.793 348.865C277.01 350.822 277.766 352.097 279.064 352.689L280.635 345.143C278.825 344.346 277.499 343.322 276.657 342.07C275.826 340.806 275.41 339.492 275.41 338.126C275.41 336.897 275.741 335.708 276.401 334.558C277.072 333.397 278.017 332.498 279.235 331.861C280.464 331.212 281.625 330.887 282.717 330.887L283.622 330.905L283.93 329.436H286.371L285.995 331.195C287.464 331.559 288.642 332.265 289.529 333.312C290.417 334.359 290.935 335.696 291.083 337.324L286.883 337.546C286.678 336.282 286.126 335.4 285.227 334.899L283.81 341.694C285.836 342.514 287.287 343.538 288.163 344.767C289.051 345.985 289.495 347.379 289.495 348.95C289.495 351.135 288.681 352.996 287.054 354.533C285.426 356.058 283.292 356.82 280.652 356.82L280.02 359.825H277.579L278.262 356.53ZM281.574 340.687L282.871 334.49C281.904 334.478 281.096 334.786 280.447 335.412C279.809 336.026 279.491 336.76 279.491 337.614C279.491 338.889 280.185 339.913 281.574 340.687ZM282.871 346.184L281.437 353.03C282.723 352.928 283.713 352.529 284.408 351.835C285.113 351.141 285.466 350.316 285.466 349.36C285.466 348.734 285.307 348.193 284.988 347.738C284.669 347.283 283.964 346.765 282.871 346.184Z" fill="#F8C900"/>
<path d="M538.24 415.826C538.24 439.14 519.34 458.039 496.027 458.039C472.713 458.039 453.813 439.14 453.813 415.826C453.813 392.513 472.713 373.613 496.027 373.613C519.34 373.613 538.24 392.513 538.24 415.826Z" fill="#F7C800"/>
<path d="M526.513 415.827C526.513 432.664 512.864 446.313 496.027 446.313C479.189 446.313 465.54 432.664 465.54 415.827C465.54 398.989 479.189 385.34 496.027 385.34C512.864 385.34 526.513 398.989 526.513 415.827Z" fill="#E8A10C"/>
<path d="M524.371 404.602C524.73 406.474 524.925 408.404 524.925 410.38C524.925 427.218 511.276 440.867 494.439 440.867C481.567 440.867 470.566 432.886 466.095 421.606C468.796 435.678 481.167 446.314 496.027 446.314C512.865 446.314 526.514 432.665 526.514 415.827C526.514 411.862 525.749 408.077 524.372 404.602H524.371Z" fill="#E8800C"/>
<path d="M496.304 375.666V381.557" stroke="#E8A10C" stroke-width="1.33344" stroke-miterlimit="10" stroke-linecap="round" stroke-linejoin="round"/>
<path d="M524.622 387.625L520.456 391.79" stroke="#E8A10C" stroke-width="1.33344" stroke-miterlimit="10" stroke-linecap="round" stroke-linejoin="round"/>
<path d="M536.187 416.104H530.297" stroke="#E8A10C" stroke-width="1.33344" stroke-miterlimit="10" stroke-linecap="round" stroke-linejoin="round"/>
<path d="M524.229 444.42L520.063 440.254" stroke="#E8A10C" stroke-width="1.33344" stroke-miterlimit="10" stroke-linecap="round" stroke-linejoin="round"/>
<path d="M495.75 455.987V450.096" stroke="#E8A10C" stroke-width="1.33344" stroke-miterlimit="10" stroke-linecap="round" stroke-linejoin="round"/>
<path d="M467.435 444.028L471.6 439.863" stroke="#E8A10C" stroke-width="1.33344" stroke-miterlimit="10" stroke-linecap="round" stroke-linejoin="round"/>
<path d="M455.867 415.55H461.758" stroke="#E8A10C" stroke-width="1.33344" stroke-miterlimit="10" stroke-linecap="round" stroke-linejoin="round"/>
<path d="M467.826 387.233L471.992 391.398" stroke="#E8A10C" stroke-width="1.33344" stroke-miterlimit="10" stroke-linecap="round" stroke-linejoin="round"/>
<path d="M511.948 378.956L509.65 384.38" stroke="#E8A10C" stroke-width="1.33344" stroke-miterlimit="10" stroke-linecap="round" stroke-linejoin="round"/>
<path d="M533.356 401.013L527.896 403.224" stroke="#E8A10C" stroke-width="1.33344" stroke-miterlimit="10" stroke-linecap="round" stroke-linejoin="round"/>
<path d="M532.899 431.747L527.475 429.449" stroke="#E8A10C" stroke-width="1.33344" stroke-miterlimit="10" stroke-linecap="round" stroke-linejoin="round"/>
<path d="M510.842 453.156L508.631 447.695" stroke="#E8A10C" stroke-width="1.33344" stroke-miterlimit="10" stroke-linecap="round" stroke-linejoin="round"/>
<path d="M480.107 452.697L482.405 447.273" stroke="#E8A10C" stroke-width="1.33344" stroke-miterlimit="10" stroke-linecap="round" stroke-linejoin="round"/>
<path d="M458.698 430.641L464.159 428.43" stroke="#E8A10C" stroke-width="1.33344" stroke-miterlimit="10" stroke-linecap="round" stroke-linejoin="round"/>
<path d="M459.156 399.906L464.58 402.204" stroke="#E8A10C" stroke-width="1.33344" stroke-miterlimit="10" stroke-linecap="round" stroke-linejoin="round"/>
<path d="M481.213 378.498L483.424 383.957" stroke="#E8A10C" stroke-width="1.33344" stroke-miterlimit="10" stroke-linecap="round" stroke-linejoin="round"/>
<path d="M492.812 423.276C491.185 422.878 489.847 422.03 488.8 420.732C487.753 419.424 487.161 417.79 487.025 415.833L491.344 415.611C491.56 417.568 492.317 418.843 493.615 419.435L495.185 411.889C493.376 411.092 492.05 410.068 491.208 408.816C490.377 407.553 489.961 406.238 489.961 404.872C489.961 403.643 490.291 402.454 490.951 401.304C491.623 400.143 492.568 399.244 493.785 398.607C495.015 397.958 496.176 397.634 497.268 397.634L498.173 397.651L498.48 396.182H500.922L500.546 397.941C502.014 398.305 503.192 399.011 504.08 400.058C504.968 401.105 505.486 402.442 505.634 404.07L501.434 404.292C501.229 403.028 500.677 402.146 499.778 401.646L498.361 408.44C500.387 409.26 501.838 410.284 502.714 411.513C503.602 412.731 504.046 414.125 504.046 415.696C504.046 417.881 503.232 419.742 501.605 421.279C499.977 422.804 497.843 423.566 495.202 423.566L494.571 426.571H492.129L492.812 423.276ZM496.124 407.433L497.422 401.236C496.454 401.224 495.646 401.532 494.998 402.158C494.36 402.772 494.042 403.506 494.042 404.36C494.042 405.635 494.736 406.659 496.124 407.433ZM497.422 412.93L495.988 419.776C497.274 419.674 498.264 419.276 498.958 418.581C499.664 417.887 500.017 417.062 500.017 416.106C500.017 415.48 499.857 414.939 499.539 414.484C499.22 414.029 498.514 413.511 497.422 412.93Z" fill="#F8C900"/>
<path d="M206.511 318.241L195.351 331.188C195.351 331.188 186.804 292.828 207.684 269.469C207.684 269.469 207.698 269.455 207.711 269.442C208.391 268.668 209.111 267.922 209.858 267.189C210.911 266.163 212.003 265.228 213.15 264.402C199.684 287.589 206.511 318.241 206.511 318.241Z" fill="#421F96"/>
<path d="M298.49 273.319L293.78 249.947L289.444 256.061C278.777 250.838 241.148 234.587 221.017 254.241C214.937 258.814 208.124 268.815 207.71 269.441C208.39 268.667 209.11 267.921 209.857 267.187C210.91 266.161 212.002 265.227 213.149 264.401C235.009 248.36 272.028 265.802 279.743 269.742L274.875 276.606L298.489 273.319H298.49Z" fill="#512DA8"/>
<path d="M212.177 225.353C212.177 242.65 198.155 256.672 180.858 256.672C163.561 256.672 149.539 242.65 149.539 225.353C149.539 208.055 163.561 194.034 180.858 194.034C198.155 194.034 212.177 208.055 212.177 225.353Z" fill="#946EEF"/>
<path d="M167.302 213.466C167.302 210.67 168.056 208.218 169.564 206.11C171.072 203.987 173.18 202.926 175.889 202.926C177.733 202.926 179.205 203.511 180.303 204.682C181.415 205.854 181.972 207.486 181.972 209.579C181.972 211.307 181.591 213.042 180.83 214.784C180.083 216.526 179.058 217.807 177.755 218.627C176.452 219.432 174.996 219.835 173.385 219.835C171.57 219.835 170.099 219.264 168.971 218.122C167.859 216.98 167.302 215.428 167.302 213.466ZM171.936 213.971C171.936 214.718 172.097 215.267 172.419 215.618C172.741 215.955 173.18 216.124 173.737 216.124C174.791 216.124 175.669 215.333 176.372 213.752C177.089 212.156 177.448 210.473 177.448 208.701C177.448 208.057 177.279 207.559 176.943 207.208C176.606 206.842 176.167 206.659 175.625 206.659C175.01 206.659 174.454 206.915 173.956 207.427C173.473 207.925 173.012 208.913 172.573 210.392C172.148 211.856 171.936 213.049 171.936 213.971ZM173.868 237.051H168.796L195.631 202.926H200.682L173.868 237.051ZM187.418 230.639C187.418 227.843 188.172 225.383 189.68 223.261C191.187 221.138 193.296 220.076 196.004 220.076C197.849 220.076 199.32 220.662 200.418 221.833C201.531 223.004 202.087 224.637 202.087 226.73C202.087 228.458 201.706 230.2 200.945 231.957C200.198 233.699 199.174 234.973 197.871 235.778C196.568 236.583 195.111 236.986 193.501 236.986C191.685 236.986 190.214 236.415 189.087 235.273C187.974 234.131 187.418 232.586 187.418 230.639ZM192.029 231.122C192.029 231.869 192.19 232.418 192.512 232.769C192.834 233.106 193.281 233.274 193.852 233.274C194.906 233.274 195.784 232.484 196.487 230.903C197.205 229.322 197.563 227.645 197.563 225.874C197.563 225.215 197.395 224.71 197.058 224.359C196.721 223.993 196.282 223.81 195.741 223.81C195.126 223.81 194.569 224.066 194.072 224.578C193.588 225.076 193.127 226.064 192.688 227.543C192.249 229.007 192.029 230.2 192.029 231.122Z" fill="white"/>
<path d="M553.445 329.81C553.445 340.904 544.451 349.897 533.358 349.897C522.264 349.897 513.271 340.904 513.271 329.81C513.271 318.716 522.264 309.723 533.358 309.723C544.451 309.723 553.445 318.716 553.445 329.81Z" fill="#946EEF"/>
<path d="M524.906 322.009C524.906 320.216 525.389 318.643 526.357 317.291C527.324 315.93 528.676 315.249 530.413 315.249C531.596 315.249 532.54 315.624 533.244 316.376C533.958 317.127 534.314 318.174 534.314 319.516C534.314 320.624 534.07 321.737 533.582 322.855C533.103 323.972 532.446 324.794 531.61 325.319C530.774 325.836 529.84 326.094 528.807 326.094C527.643 326.094 526.699 325.728 525.976 324.995C525.263 324.263 524.906 323.268 524.906 322.009ZM527.878 322.333C527.878 322.812 527.981 323.164 528.188 323.39C528.394 323.606 528.676 323.714 529.033 323.714C529.709 323.714 530.272 323.207 530.723 322.193C531.183 321.169 531.413 320.089 531.413 318.953C531.413 318.54 531.305 318.221 531.089 317.995C530.873 317.761 530.591 317.643 530.244 317.643C529.85 317.643 529.493 317.808 529.174 318.136C528.864 318.455 528.568 319.089 528.286 320.038C528.014 320.977 527.878 321.742 527.878 322.333ZM529.117 337.136H525.864L543.075 315.249H546.315L529.117 337.136ZM537.807 333.024C537.807 331.23 538.291 329.653 539.258 328.291C540.225 326.93 541.577 326.249 543.315 326.249C544.498 326.249 545.441 326.625 546.146 327.376C546.859 328.127 547.216 329.174 547.216 330.517C547.216 331.625 546.972 332.742 546.484 333.869C546.005 334.986 545.347 335.803 544.512 336.319C543.676 336.836 542.742 337.094 541.709 337.094C540.545 337.094 539.601 336.728 538.878 335.995C538.164 335.263 537.807 334.272 537.807 333.024ZM540.765 333.334C540.765 333.812 540.868 334.164 541.075 334.39C541.282 334.606 541.568 334.714 541.934 334.714C542.61 334.714 543.174 334.207 543.624 333.193C544.084 332.179 544.315 331.103 544.315 329.967C544.315 329.545 544.207 329.221 543.991 328.995C543.775 328.761 543.493 328.643 543.145 328.643C542.751 328.643 542.394 328.808 542.075 329.136C541.765 329.456 541.469 330.089 541.188 331.038C540.906 331.977 540.765 332.742 540.765 333.334Z" fill="white"/>
</svg>
